<?xml version="1.0" encoding="UTF-8"?>
<svg width="84px" height="84px" viewBox="0 0 84 84" version="1.1" xmlns="http://www.w3.org/2000/svg" xmlns:xlink="http://www.w3.org/1999/xlink">
    <!-- Generator: Sketch 63.1 (92452) - https://sketch.com -->
    <title>Shape</title>
    <desc>Created with Sketch.</desc>
    <g id="ac-design" stroke="none" stroke-width="1" fill="none" fill-rule="evenodd">
        <g id="ac-adopt" transform="translate(-104.000000, -4043.000000)" fill="#F0ECD9" fill-rule="nonzero">
            <path d="M158.250007,4043 C153.359322,4043 149.160605,4045.90141 147.198261,4050.05597 C140.704692,4050.35128 135.49988,4055.68483 135.49988,4062.24979 C135.49988,4065.922 137.158327,4069.18387 139.726716,4071.4312 C133.857074,4072.23363 128.338989,4074.14866 123.697679,4077.03944 C121.563234,4075.39373 118.965719,4074.5 116.250167,4074.5 C115.282858,4074.5 114.49996,4075.2829 114.49996,4076.25022 C114.49996,4078.66505 115.23972,4081.02833 116.605207,4083.04663 C114.258794,4085.78615 112.601393,4088.83692 111.740068,4092.00022 L111.000187,4092.00022 C107.139483,4092.00022 104,4095.13923 104,4098.99979 C104,4102.89463 105.973949,4106.44945 109.279139,4108.51221 L121.500148,4116.12573 L121.500148,4125.24979 C121.500148,4126.2171 122.282724,4127 123.250033,4127 L130.2499,4127 C130.913038,4127 131.518093,4126.62569 131.815537,4126.03261 L133.886819,4121.89003 C141.631852,4124.02629 150.367984,4124.02629 158.113181,4121.89003 L160.184463,4126.03261 C160.481907,4126.62569 161.086962,4127 161.7501,4127 L168.749967,4127 C169.717276,4127 170.500174,4126.2171 170.500174,4125.24979 L170.500174,4115.98378 C177.185696,4111.06535 181.000135,4104.28243 181.000135,4097.24989 C181.000135,4094.70004 180.489017,4092.2417 179.580935,4089.90906 C180.76661,4088.58688 181.98529,4086.8642 182.915685,4084.62574 C183.988977,4084.86838 185.110213,4084.99968 186.250115,4084.99968 C187.217423,4084.99968 188,4084.2171 188,4083.24979 C188,4082.2828 187.216781,4081.50021 186.249473,4081.50021 C185.454757,4081.50021 184.691127,4081.41982 183.96991,4081.27463 C184.30312,4079.76723 184.499587,4078.09427 184.499587,4076.25022 C184.499587,4073.35517 182.144643,4071.00021 179.249607,4071.00021 C176.354572,4071.00021 173.999628,4073.35517 173.999628,4076.25022 C173.999628,4079.1264 176.301621,4081.84016 179.603366,4083.46191 C179.097891,4084.63627 178.496414,4085.62089 177.874947,4086.46663 C173.607042,4079.39931 165.29509,4074.00883 155.155902,4071.94229 C156.675443,4070.77072 157.913452,4069.24221 158.758535,4067.44852 C165.27212,4067.17486 170.499533,4061.82946 170.499533,4055.24989 C170.499697,4048.4961 165.003779,4043 158.250007,4043 Z M158.500156,4046 C163.186766,4046 167,4050.03796 167,4055.00032 C167,4059.9627 163.186766,4064 158.500156,4064 C153.813546,4064 150,4059.96253 150,4055.00032 C150,4050.03813 153.813387,4046 158.500156,4046 Z M158.000184,4050 C156.894717,4050 156,4050.81982 156,4051.83316 L156,4059.1665 C156,4060.17984 156.894717,4061 158.000184,4061 C159.10565,4061 160,4060.17984 160,4059.1665 L160,4051.83316 C160,4050.81982 159.10565,4050 158.000184,4050 Z M146.152697,4054 C146.085488,4054.50895 145.994218,4055.01143 145.994218,4055.53793 C145.994218,4056.41282 146.101541,4057.26154 146.283002,4058.08375 C146.115966,4058.34724 145.994218,4058.64059 145.994218,4058.97399 L145.994218,4065.84609 C145.994218,4066.79569 146.776448,4067.56395 147.742933,4067.56395 C148.709416,4067.56395 149.491326,4066.79569 149.491326,4065.84609 L149.491326,4063.92783 C150.984163,4065.42924 152.883767,4066.50942 155,4067.0836 C153.413235,4069.47679 150.713362,4071 147.742933,4071 C142.922479,4071 139,4067.14601 139,4062.40972 C139,4058.23666 142.048584,4054.75892 146.152697,4054 Z M145.499952,4074 C162.868455,4074 177,4084.20611 177,4096.75011 C177,4102.9674 173.539219,4108.78959 167.253647,4113.14412 C166.781966,4113.47225 166.499984,4114.00896 166.499984,4114.58319 L166.499984,4123 L162.331765,4123 L160.088078,4118.51362 C159.703516,4117.74285 158.814912,4117.36711 157.99788,4117.62698 C150.085297,4120.11186 140.914606,4120.11186 133.002024,4117.62698 C132.178265,4117.37399 131.296388,4117.7481 130.911825,4118.51362 L128.668139,4123 L124.49992,4123 L124.49992,4114.65496 C124.49992,4114.0499 124.188778,4113.48935 123.676082,4113.16975 L110.631491,4105.04165 C108.356761,4103.62317 107,4101.17766 107,4098.49968 C107,4096.57031 108.570734,4094.99991 110.500112,4094.99991 L112.627801,4094.99991 C113.465177,4094.99991 114.184715,4094.40682 114.345333,4093.58488 C115.017006,4090.13794 116.850615,4086.77127 119.648213,4083.84884 C120.275424,4083.19422 120.29749,4082.16716 119.699487,4081.48532 C118.720196,4080.36937 118.055413,4079.09277 117.730733,4077.72728 C119.25865,4078.08444 120.671925,4078.85352 121.8307,4079.978 C122.430514,4080.5591 123.346799,4080.63949 124.03209,4080.16962 C129.897004,4076.19095 137.520764,4074 145.499956,4074 L145.499952,4074 Z M179.000184,4074 C180.103775,4074 181,4074.84831 181,4075.89248 C180.999813,4077.38741 180.851645,4078.75449 180.595715,4080 C178.373157,4078.80434 177,4077.15449 177,4075.89248 C177,4074.84849 177.896592,4074 179.000184,4074 L179.000184,4074 Z M145.999984,4078 C141.433739,4078 136.867694,4078.5756 133.205445,4079.72682 C132.286069,4080.01498 131.786768,4080.9631 132.087485,4081.84237 C132.391647,4082.72336 133.384682,4083.20841 134.295527,4082.91364 C140.926228,4080.82735 151.07374,4080.82735 157.70444,4082.91364 C157.885559,4082.97103 158.068683,4082.99686 158.249802,4082.99686 C158.986419,4082.99686 159.669842,4082.5498 159.912483,4081.84237 C160.213199,4080.9631 159.714219,4080.01514 158.794843,4079.72682 C155.132594,4078.5756 150.566229,4078 145.999984,4078 Z M121.500161,4088 C119.570756,4088 118,4089.57076 118,4091.50016 C118,4093.42956 119.570756,4095 121.500161,4095 C123.429565,4095 125,4093.42956 125,4091.50016 C125,4089.57076 123.429565,4088 121.500161,4088 Z" id="Shape"></path>
        </g>
    </g>
</svg>