<?xml version="1.0" encoding="UTF-8"?>
<svg width="381px" height="559px" viewBox="0 0 381 559" version="1.1" xmlns="http://www.w3.org/2000/svg" xmlns:xlink="http://www.w3.org/1999/xlink">
    <!-- Generator: Sketch 63.1 (92452) - https://sketch.com -->
    <title>Stroke 1</title>
    <desc>Created with Sketch.</desc>
    <g id="ac-design" stroke="none" stroke-width="1" fill="none" fill-rule="evenodd">
        <g id="ac-adopt" transform="translate(0.000000, -1508.000000)" stroke="#F0ECD9" stroke-width="3">
            <path d="M-157,1527.72934 C-157,1527.72934 181.267212,1461.05764 154,1586.29487 C126.736388,1711.5321 53.9178188,1711.5321 53.9178188,1821.33083 C53.9178188,1931.12956 172.843149,2057.78577 254.641186,2064.84213 C336.437423,2071.89849 436.423914,1840.14019 338.382921,1823.55846 C240.340128,1806.97674 235.935106,1881.10597 235.935106,1881.10597 C235.935106,1881.10597 194.073896,1803.07478 136.790608,1824.53395 C79.5091197,1845.99313 142.297335,1988.40025 231.528284,2006.93295 C320.757433,2025.46566 371.430488,1868.4262 332.876194,1862.57326 C294.3201,1856.72032 298.725122,1879.15658 268.980872,1891.83635 C239.238423,1904.51612 240.340128,1906.46551 213.902795,1883.05695 C187.463662,1859.64679 118.063413,1869.40169 164.331446,1926.94919 C210.597679,1984.4967 244.748751,1985.34148 265.677556,1969.8006 C286.606361,1954.2613 354.906704,1896.71221 287.709867,1917.19589 C220.513029,1937.67798 226.568809,1899.63867 204.813725,1910.36906 C183.05864,1921.09785 211.699384,1955.12362 240.340128,1955.66556 C268.980872,1956.21069 260.053817,1931.97009 238.034107,1935.66006" id="Stroke-1"></path>
        </g>
    </g>
</svg>