<?xml version="1.0" encoding="UTF-8"?>
<svg width="84px" height="52px" viewBox="0 0 84 52" version="1.1" xmlns="http://www.w3.org/2000/svg" xmlns:xlink="http://www.w3.org/1999/xlink">
    <!-- Generator: Sketch 63.1 (92452) - https://sketch.com -->
    <title>Group 5</title>
    <desc>Created with Sketch.</desc>
    <g id="ac-design" stroke="none" stroke-width="1" fill="none" fill-rule="evenodd">
        <g id="ac-adopt-tb" transform="translate(-109.000000, -2892.000000)">
            <g id="Group-7-Copy" transform="translate(80.000000, 2880.000000)">
                <g id="Group-6" transform="translate(29.000000, 0.144000)">
                    <g id="Group-5" transform="translate(0.000000, 11.856000)">
                        <path d="M83.4785,14.2266 C83.4785,37.3986 41.7685,51.3016 41.7685,51.3016 C41.7685,51.3016 0.0585,37.3986 0.0585,14.2266 C0.0585,-8.9464 41.7685,0.3236 41.7685,18.8616 C41.7685,0.3236 83.4785,-8.9464 83.4785,14.2266" id="Fill-2" fill="#18186B"></path>
                        <path d="M54.833,20.9463 C58.146,22.0503 60.003,25.4343 58.979,28.5023 C57.956,31.5693 54.44,33.1603 51.127,32.0553 C47.813,30.9503 45.957,27.5673 46.98,24.4993 C48.004,21.4313 51.52,19.8413 54.833,20.9463" id="Fill-3" fill="#FFFFFF"></path>
                        <path d="M32.6738,20.7549 C35.9868,21.8599 37.8428,25.2429 36.8198,28.3109 C35.7958,31.3789 32.2798,32.9699 28.9678,31.8639 C25.6538,30.7589 23.7978,27.3759 24.8208,24.3089 C25.8448,21.2399 29.3608,19.6499 32.6738,20.7549" id="Fill-4" fill="#FFFFFF"></path>
                    </g>
                </g>
            </g>
        </g>
    </g>
</svg>