<?xml version="1.0" encoding="UTF-8"?>
<svg width="102px" height="103px" viewBox="0 0 102 103" version="1.1" xmlns="http://www.w3.org/2000/svg" xmlns:xlink="http://www.w3.org/1999/xlink">
    <!-- Generator: Sketch 63.1 (92452) - https://sketch.com -->
    <title>Group 14</title>
    <desc>Created with Sketch.</desc>
    <g id="ac-design" stroke="none" stroke-width="1" fill="none" fill-rule="evenodd">
        <g id="ac-adopt" transform="translate(-333.000000, -1751.000000)" fill="#FBB938">
            <g id="Group-10" transform="translate(212.000000, 1749.000000)">
                <g id="Group-14" transform="translate(119.000000, 0.000000)">
                    <path d="M74.9967119,87.1289252 C74.9967119,76.9121895 52,71.8071067 52,84.5730987 C52,97.3390907 74.9967119,105 74.9967119,105 C74.9967119,105 98,97.3390907 98,84.5730987 C98,71.8071067 74.9967119,76.9121895 74.9967119,87.1289252" id="Fill-1-Copy-2" transform="translate(75.000000, 91.000000) rotate(30.000000) translate(-75.000000, -91.000000) "></path>
                    <path d="M26.9967119,55.1289252 C26.9967119,44.9121895 4,39.8071067 4,52.5730987 C4,65.3390907 26.9967119,73 26.9967119,73 C26.9967119,73 50,65.3390907 50,52.5730987 C50,39.8071067 26.9967119,44.9121895 26.9967119,55.1289252" id="Fill-1-Copy-3" transform="translate(27.000000, 59.000000) rotate(-30.000000) translate(-27.000000, -59.000000) "></path>
                    <path d="M78.9967119,16.1289252 C78.9967119,5.91218948 56,0.807106727 56,13.5730987 C56,26.3390907 78.9967119,34 78.9967119,34 C78.9967119,34 102,26.3390907 102,13.5730987 C102,0.807106727 78.9967119,5.91218948 78.9967119,16.1289252" id="Fill-1-Copy-4" transform="translate(79.000000, 20.000000) rotate(15.000000) translate(-79.000000, -20.000000) "></path>
                </g>
            </g>
        </g>
    </g>
</svg>