<svg xmlns="http://www.w3.org/2000/svg" xmlns:xlink="http://www.w3.org/1999/xlink" viewBox="0 0 586.39 574.01"><defs><style>.cls-1,.cls-2,.cls-63{fill:none;}.cls-1{clip-rule:evenodd;}.cls-3{clip-path:url(#clip-path);}.cls-4{clip-path:url(#clip-path-2);}.cls-5{isolation:isolate;}.cls-6{clip-path:url(#clip-path-3);}.cls-7{clip-path:url(#clip-path-4);}.cls-8{clip-path:url(#clip-path-5);}.cls-9{fill:#e26d52;}.cls-10{clip-path:url(#clip-path-6);}.cls-11{clip-path:url(#clip-path-7);}.cls-12{clip-path:url(#clip-path-8);}.cls-13{clip-path:url(#clip-path-9);}.cls-14{clip-path:url(#clip-path-10);}.cls-15{fill:#41a1cd;}.cls-16{clip-path:url(#clip-path-11);}.cls-17{clip-path:url(#clip-path-12);}.cls-18{clip-path:url(#clip-path-13);}.cls-19{clip-path:url(#clip-path-14);}.cls-20{clip-path:url(#clip-path-15);}.cls-21{fill:#efbc30;}.cls-22{clip-path:url(#clip-path-16);}.cls-23{clip-path:url(#clip-path-17);}.cls-24{fill:#18186b;}.cls-25{clip-path:url(#clip-path-18);}.cls-26{clip-path:url(#clip-path-20);}.cls-27{clip-path:url(#clip-path-22);}.cls-28{clip-path:url(#clip-path-24);}.cls-29{clip-path:url(#clip-path-26);}.cls-30{clip-path:url(#clip-path-28);}.cls-31{clip-path:url(#clip-path-29);}.cls-32{clip-path:url(#clip-path-31);}.cls-33{clip-path:url(#clip-path-33);}.cls-34{clip-path:url(#clip-path-35);}.cls-35{clip-path:url(#clip-path-37);}.cls-36{clip-path:url(#clip-path-39);}.cls-37{clip-path:url(#clip-path-41);}.cls-38{clip-path:url(#clip-path-43);}.cls-39{clip-path:url(#clip-path-45);}.cls-40{clip-path:url(#clip-path-47);}.cls-41{clip-path:url(#clip-path-49);}.cls-42{clip-path:url(#clip-path-51);}.cls-43{clip-path:url(#clip-path-53);}.cls-44{clip-path:url(#clip-path-55);}.cls-45{clip-path:url(#clip-path-57);}.cls-46{clip-path:url(#clip-path-59);}.cls-47{clip-path:url(#clip-path-61);}.cls-48{clip-path:url(#clip-path-63);}.cls-49{clip-path:url(#clip-path-65);}.cls-50{clip-path:url(#clip-path-67);}.cls-51{clip-path:url(#clip-path-68);}.cls-52{clip-path:url(#clip-path-69);}.cls-53{clip-path:url(#clip-path-71);}.cls-54{clip-path:url(#clip-path-73);}.cls-55{clip-path:url(#clip-path-75);}.cls-56{clip-path:url(#clip-path-77);}.cls-57{clip-path:url(#clip-path-79);}.cls-58{clip-path:url(#clip-path-81);}.cls-59{clip-path:url(#clip-path-83);}.cls-60{clip-path:url(#clip-path-85);}.cls-61{clip-path:url(#clip-path-87);}.cls-62{clip-path:url(#clip-path-89);}.cls-63{stroke:#18186b;stroke-miterlimit:10;stroke-width:2px;}</style><clipPath id="clip-path" transform="translate(-4214.1 -2661.46)"><polygon class="cls-1" points="4714.8 2879.07 4774.12 2944.09 4734.1 2980.32 4674.79 2915.3 4714.8 2879.07"/></clipPath><clipPath id="clip-path-2" transform="translate(-4214.1 -2661.46)"><rect class="cls-2" x="5056.38" y="2449.97" width="1200" height="5393" transform="translate(-1849.62 3683.32) rotate(-31.27)"/></clipPath><clipPath id="clip-path-3" transform="translate(-4214.1 -2661.46)"><rect class="cls-2" x="4695.14" y="2875.43" width="68" height="97" transform="translate(-830.73 2879.24) rotate(-31.27)"/></clipPath><clipPath id="clip-path-4" transform="translate(-4214.1 -2661.46)"><path class="cls-1" d="M4729.92,2924.72c14.43-13.12-8.24-52.55-26.28-36.16s1,59.11,1,59.11,40.72,23,58.75,6.66-19.07-42.73-33.5-29.61"/></clipPath><clipPath id="clip-path-5" transform="translate(-4214.1 -2661.46)"><rect class="cls-2" x="4689.97" y="2882.55" width="70" height="96" transform="translate(-834.77 2878.04) rotate(-31.27)"/></clipPath><clipPath id="clip-path-6" transform="translate(-4214.1 -2661.46)"><polygon class="cls-1" points="4430.93 2667.63 4455.79 2755.09 4401.96 2770.94 4377.11 2683.48 4430.93 2667.63"/></clipPath><clipPath id="clip-path-7" transform="translate(-4214.1 -2661.46)"><rect class="cls-2" x="2064.29" y="-905.79" width="1200" height="5393" transform="translate(-164.03 3309.17) rotate(-62.14)"/></clipPath><clipPath id="clip-path-8" transform="translate(-4214.1 -2661.46)"><rect class="cls-2" x="4377.61" y="2665.03" width="102" height="101" transform="translate(-41.9 5361.52) rotate(-62.14)"/></clipPath><clipPath id="clip-path-9" transform="translate(-4214.1 -2661.46)"><path class="cls-1" d="M4423.86,2717.13c19.58-5.66,16.67-52.36-7.79-45.28s-26.45,55.19-26.45,55.19,27.37,39.63,51.83,32.55,2-48.12-17.59-42.46"/></clipPath><clipPath id="clip-path-10" transform="translate(-4214.1 -2661.46)"><rect class="cls-2" x="4365.04" y="2669.43" width="100" height="105" transform="translate(-54.79 5352.93) rotate(-62.14)"/></clipPath><clipPath id="clip-path-11" transform="translate(-4214.1 -2661.46)"><polygon class="cls-1" points="4299.99 2988.51 4240.29 2956.01 4260.81 2918.91 4320.51 2951.41 4299.99 2988.51"/></clipPath><clipPath id="clip-path-12" transform="translate(-4214.1 -2661.46)"><rect class="cls-2" x="3137.22" y="2345.52" width="1200" height="5393" transform="translate(-21.43 15.95) rotate(-0.24)"/></clipPath><clipPath id="clip-path-13" transform="translate(-4214.1 -2661.46)"><rect class="cls-2" x="4236.37" y="2928.2" width="79" height="68" transform="translate(-12.57 18.23) rotate(-0.24)"/></clipPath><clipPath id="clip-path-14" transform="translate(-4214.1 -2661.46)"><path class="cls-1" d="M4277.57,2958.87c-7.46,13.6,18.52,36.69,27.84,19.7s-14.78-43.49-14.78-43.49S4255.32,2929,4246,2946s24.12,26.51,31.58,12.91"/></clipPath><clipPath id="clip-path-15" transform="translate(-4214.1 -2661.46)"><rect class="cls-2" x="4239.33" y="2918.18" width="82" height="71" transform="translate(-12.53 18.25) rotate(-0.24)"/></clipPath><clipPath id="clip-path-16" transform="translate(-4214.1 -2661.46)"><path class="cls-1" d="M4226.37,2758.79l-3.63,2.47s-6.46,4.93-2,9.17,3.73,4.3,5.72,1.13c3.24-5.15,8.77-12.81-.05-12.77"/></clipPath><clipPath id="clip-path-17" transform="translate(-4214.1 -2661.46)"><rect class="cls-2" x="3611.35" y="2465.87" width="1200" height="5393" transform="translate(-21.94 17.97) rotate(-0.24)"/></clipPath><clipPath id="clip-path-18" transform="translate(-4214.1 -2661.46)"><path class="cls-1" d="M4249,2759.72s-5.52-.6-7,3.72-1.12,9.58,3,9.25,11.37-12.55,4.06-13"/></clipPath><clipPath id="clip-path-20" transform="translate(-4214.1 -2661.46)"><path class="cls-1" d="M4264.7,2761.69s-2.57.91-2.56,2.71,1.44,8.55,5.65,8.2.91-5.52,2.07-8.23-1.42-2.92-5.16-2.68"/></clipPath><clipPath id="clip-path-22" transform="translate(-4214.1 -2661.46)"><path class="cls-1" d="M4286.14,2763.59l0,4.28c0,5.71,4.2,5.05,6.5,3.77s1.43-7.76.8-8.24-7.34-4.09-7.32.19"/></clipPath><clipPath id="clip-path-24" transform="translate(-4214.1 -2661.46)"><path class="cls-1" d="M4307.34,2764.62s-.43-.61,0,2.92.66,5.11,2.14,4.87a4.74,4.74,0,0,0,3.8-2.26c1.26-1.78,1-5.56,0-7.11s-6.33-5.84-6.13-2.13a30.93,30.93,0,0,1,.21,3.71"/></clipPath><clipPath id="clip-path-26" transform="translate(-4214.1 -2661.46)"><rect class="cls-2" x="4324.87" y="2765.23" width="10.6" height="7.61" transform="translate(-11.75 18.46) rotate(-0.24)"/></clipPath><clipPath id="clip-path-28" transform="translate(-4214.1 -2661.46)"><rect class="cls-2" x="4324.16" y="2764.34" width="12" height="9" transform="translate(-11.75 18.46) rotate(-0.24)"/></clipPath><clipPath id="clip-path-29" transform="translate(-4214.1 -2661.46)"><path class="cls-1" d="M4326.48,2766.1c-2.23.61-1.5,4.29-1.49,5.41s3.47,1.64,5.64,1.15,5.4-2.48,4.74-5-3.05-3.2-8.89-1.58"/></clipPath><clipPath id="clip-path-31" transform="translate(-4214.1 -2661.46)"><path class="cls-1" d="M4328.06,2805.35l3.64-2.47s6.46-4.93,2-9.17-3.73-4.3-5.72-1.13c-3.23,5.15-8.76,12.81.05,12.77"/></clipPath><clipPath id="clip-path-33" transform="translate(-4214.1 -2661.46)"><path class="cls-1" d="M4305.43,2804.42s5.51.6,7-3.72,1.12-9.58-3-9.25-11.37,12.56-4,13"/></clipPath><clipPath id="clip-path-35" transform="translate(-4214.1 -2661.46)"><path class="cls-1" d="M4290.73,2801.45s2.57-.91,2.56-2.72-1.44-8.55-5.65-8.19-.91,5.52-2.07,8.23,1.42,2.92,5.16,2.68"/></clipPath><clipPath id="clip-path-37" transform="translate(-4214.1 -2661.46)"><path class="cls-1" d="M4269.3,2800.54l0-4.27c0-5.72-4.21-5.06-6.5-3.77s-1.43,7.76-.8,8.23,7.33,4.09,7.32-.19"/></clipPath><clipPath id="clip-path-39" transform="translate(-4214.1 -2661.46)"><path class="cls-1" d="M4333.55,2861.27V2857c0-5.71-4.21-5-6.5-3.77s-1.44,7.77-.8,8.24,7.33,4.09,7.31-.19"/></clipPath><clipPath id="clip-path-41" transform="translate(-4214.1 -2661.46)"><path class="cls-1" d="M4248.1,2799.52s.42.6,0-2.92-.65-5.12-2.13-4.87a4.77,4.77,0,0,0-3.81,2.25c-1.26,1.79-1,5.57,0,7.12s6.34,5.84,6.13,2.13a30.57,30.57,0,0,1-.2-3.71"/></clipPath><clipPath id="clip-path-43" transform="translate(-4214.1 -2661.46)"><path class="cls-1" d="M4228.6,2798c2.31-.57,1.55-4,1.55-5s-3.61-1.51-5.85-1.05-5.62,2.29-4.94,4.59,3.17,2.93,9.24,1.45"/></clipPath><clipPath id="clip-path-45" transform="translate(-4214.1 -2661.46)"><path class="cls-1" d="M4306.13,2821.45l3.66,2.44s6.5,4.88,2.11,9.15-3.69,4.34-5.71,1.18c-3.28-5.12-8.88-12.74-.06-12.77"/></clipPath><clipPath id="clip-path-47" transform="translate(-4214.1 -2661.46)"><path class="cls-1" d="M4242.51,2824.75s5.51-.65,7.07,3.66,1.2,9.56-2.9,9.28-11.48-12.46-4.17-12.94"/></clipPath><clipPath id="clip-path-49" transform="translate(-4214.1 -2661.46)"><path class="cls-1" d="M4287.63,2851.56s5.5-.65,7.06,3.66,1.21,9.56-2.9,9.28-11.47-12.47-4.16-12.94"/></clipPath><clipPath id="clip-path-51" transform="translate(-4214.1 -2661.46)"><path class="cls-1" d="M4222.85,2854.81s5.49-.65,7,3.67,1.2,9.58-2.89,9.29-11.43-12.49-4.15-13"/></clipPath><clipPath id="clip-path-53" transform="translate(-4214.1 -2661.46)"><path class="cls-1" d="M4266.83,2825.68s2.58.89,2.58,2.69-1.36,8.56-5.57,8.25-1-5.52-2.14-8.22,1.39-2.93,5.13-2.72"/></clipPath><clipPath id="clip-path-55" transform="translate(-4214.1 -2661.46)"><path class="cls-1" d="M4245,2855.77s2.57.89,2.58,2.69-1.36,8.57-5.57,8.25-1-5.52-2.14-8.21,1.38-2.94,5.13-2.73"/></clipPath><clipPath id="clip-path-57" transform="translate(-4214.1 -2661.46)"><path class="cls-1" d="M4309.94,2852.5s2.58.89,2.59,2.69-1.37,8.56-5.58,8.24-1-5.51-2.14-8.21,1.39-2.93,5.13-2.72"/></clipPath><clipPath id="clip-path-59" transform="translate(-4214.1 -2661.46)"><path class="cls-1" d="M4290.38,2834.51l-4.28,0c-5.71,0-5.09-4.16-3.82-6.47s7.75-1.49,8.23-.87,4.15,7.31-.13,7.32"/></clipPath><clipPath id="clip-path-61" transform="translate(-4214.1 -2661.46)"><path class="cls-1" d="M4327.17,2832s-.5.55.38-2.95,1.31-5.08,2.78-4.63a4.94,4.94,0,0,1,3.57,2.81c1.06,2,.36,5.77-.92,7.19s-7.15,5-6.48,1.3a31.18,31.18,0,0,0,.67-3.72"/></clipPath><clipPath id="clip-path-63" transform="translate(-4214.1 -2661.46)"><path class="cls-1" d="M4259.29,2859.29s-.51.55.38-2.95,1.3-5.08,2.77-4.63a5,5,0,0,1,3.58,2.81c1.06,2,.35,5.77-.92,7.19s-7.16,5-6.48,1.3a31.18,31.18,0,0,0,.67-3.72"/></clipPath><clipPath id="clip-path-65" transform="translate(-4214.1 -2661.46)"><path class="cls-1" d="M4224.8,2836.54c-1.86,1.41-4.26-1.32-5.13-2s.87-3.72,2.59-5.15,5.26-2.85,6.8-.86.6,4.29-4.26,8"/></clipPath><clipPath id="clip-path-67" transform="translate(-4214.1 -2661.46)"><path class="cls-1" d="M4686.35,3081.44l-3.63,2.48s-6.46,4.93-2,9.17,3.73,4.3,5.73,1.13c3.23-5.15,8.76-12.82-.06-12.78"/></clipPath><clipPath id="clip-path-68" transform="translate(-4214.1 -2661.46)"><rect class="cls-2" x="3828.29" y="2309.56" width="1200" height="5393" transform="translate(-21.27 18.89) rotate(-0.24)"/></clipPath><clipPath id="clip-path-69" transform="translate(-4214.1 -2661.46)"><path class="cls-1" d="M4709,3082.38s-5.51-.61-7,3.72-1.12,9.57,3,9.25,11.37-12.56,4.06-13"/></clipPath><clipPath id="clip-path-71" transform="translate(-4214.1 -2661.46)"><path class="cls-1" d="M4724.68,3084.34s-2.57.91-2.56,2.72,1.44,8.55,5.65,8.19.91-5.52,2.07-8.23-1.42-2.92-5.16-2.68"/></clipPath><clipPath id="clip-path-73" transform="translate(-4214.1 -2661.46)"><path class="cls-1" d="M4746.12,3086.25l0,4.28c0,5.7,4.2,5,6.5,3.77s1.43-7.77.8-8.25-7.34-4.08-7.32.2"/></clipPath><clipPath id="clip-path-75" transform="translate(-4214.1 -2661.46)"><path class="cls-1" d="M4767.32,3087.27s-.43-.6,0,2.92.66,5.12,2.14,4.87a4.73,4.73,0,0,0,3.8-2.25c1.26-1.79,1-5.57,0-7.12s-6.33-5.83-6.13-2.13a31,31,0,0,1,.21,3.71"/></clipPath><clipPath id="clip-path-77" transform="translate(-4214.1 -2661.46)"><path class="cls-1" d="M4786.46,3088.75c-2.23.62-1.5,4.29-1.49,5.42s3.47,1.64,5.64,1.14,5.4-2.48,4.74-5-3-3.19-8.89-1.58"/></clipPath><clipPath id="clip-path-79" transform="translate(-4214.1 -2661.46)"><path class="cls-1" d="M4788,3128l3.64-2.48s6.46-4.93,2-9.17-3.73-4.3-5.72-1.12c-3.23,5.14-8.76,12.81.05,12.77"/></clipPath><clipPath id="clip-path-81" transform="translate(-4214.1 -2661.46)"><path class="cls-1" d="M4765.41,3127.07s5.51.6,7-3.72,1.13-9.57-3-9.25-11.36,12.56-4.05,13"/></clipPath><clipPath id="clip-path-83" transform="translate(-4214.1 -2661.46)"><path class="cls-1" d="M4750.71,3124.1s2.57-.91,2.56-2.71-1.44-8.55-5.65-8.2-.91,5.52-2.07,8.23,1.42,2.92,5.16,2.68"/></clipPath><clipPath id="clip-path-85" transform="translate(-4214.1 -2661.46)"><path class="cls-1" d="M4729.28,3123.2l0-4.28c0-5.71-4.21-5.05-6.5-3.77s-1.43,7.77-.8,8.24,7.33,4.09,7.32-.19"/></clipPath><clipPath id="clip-path-87" transform="translate(-4214.1 -2661.46)"><path class="cls-1" d="M4708.08,3122.17s.42.61,0-2.92-.66-5.11-2.14-4.87a4.79,4.79,0,0,0-3.81,2.26c-1.26,1.78-1,5.56,0,7.11s6.34,5.84,6.13,2.13a30.48,30.48,0,0,1-.2-3.71"/></clipPath><clipPath id="clip-path-89" transform="translate(-4214.1 -2661.46)"><path class="cls-1" d="M4688.58,3120.65c2.31-.57,1.55-4,1.55-5s-3.61-1.5-5.85-1-5.62,2.28-4.93,4.58,3.16,2.94,9.23,1.45"/></clipPath></defs><title>Asset 2</title><g id="Layer_2" data-name="Layer 2"><g id="Layer_1-2" data-name="Layer 1"><g class="cls-3"><g class="cls-4"><g class="cls-5"><g class="cls-6"><g class="cls-7"><g class="cls-8"><rect class="cls-9" x="4692.73" y="2880.26" width="63.45" height="98.87" transform="translate(-4956.3 1277.83) rotate(-42.27)"/></g></g></g></g></g></g><g class="cls-10"><g class="cls-11"><g class="cls-5"><g class="cls-12"><g class="cls-13"><g class="cls-14"><rect class="cls-15" x="4383.52" y="2668.61" width="65.85" height="101.34" transform="translate(-4795.85 -1326.92) rotate(-16.14)"/></g></g></g></g></g></g><g class="cls-16"><g class="cls-17"><g class="cls-5"><g class="cls-18"><g class="cls-19"><g class="cls-20"><rect class="cls-21" x="4254.14" y="2914.82" width="52.52" height="77.78" transform="translate(-4582.37 2623.79) rotate(-61.24)"/></g></g></g></g></g></g><g class="cls-22"><g class="cls-23"><rect class="cls-24" x="4214.15" y="2753.79" width="22" height="25" transform="translate(-4225.83 -2643.45) rotate(-0.24)"/></g></g><g class="cls-25"><g class="cls-23"><rect class="cls-24" x="4236.15" y="2754.7" width="21" height="23" transform="translate(-4225.83 -2643.36) rotate(-0.24)"/></g></g><g class="cls-26"><g class="cls-23"><rect class="cls-24" x="4257.15" y="2756.62" width="18" height="21" transform="translate(-4225.84 -2643.27) rotate(-0.24)"/></g></g><g class="cls-27"><g class="cls-23"><rect class="cls-24" x="4281.15" y="2756.51" width="18" height="21" transform="translate(-4225.84 -2643.17) rotate(-0.24)"/></g></g><g class="cls-28"><g class="cls-23"><rect class="cls-24" x="4302.15" y="2754.43" width="17" height="23" transform="translate(-4225.83 -2643.08) rotate(-0.24)"/></g></g><g class="cls-29"><g class="cls-23"><g class="cls-5"><g class="cls-30"><g class="cls-31"><g class="cls-30"><rect x="4319.87" y="2760.23" width="20.6" height="17.61" transform="translate(-4225.84 -2643) rotate(-0.24)"/></g></g></g></g></g></g><g class="cls-32"><g class="cls-23"><rect class="cls-24" x="4318.28" y="2785.35" width="22" height="25" transform="translate(-4225.97 -2643) rotate(-0.24)"/></g></g><g class="cls-33"><g class="cls-23"><rect class="cls-24" x="4297.28" y="2786.44" width="21" height="23" transform="translate(-4225.97 -2643.1) rotate(-0.24)"/></g></g><g class="cls-34"><g class="cls-23"><rect class="cls-24" x="4280.28" y="2785.52" width="18" height="21" transform="translate(-4225.96 -2643.17) rotate(-0.24)"/></g></g><g class="cls-35"><g class="cls-23"><rect class="cls-24" x="4256.28" y="2786.62" width="18" height="21" transform="translate(-4225.96 -2643.28) rotate(-0.24)"/></g></g><g class="cls-36"><g class="cls-23"><rect class="cls-24" x="4320.54" y="2847.35" width="18" height="21" transform="translate(-4226.22 -2643) rotate(-0.24)"/></g></g><g class="cls-37"><g class="cls-23"><rect class="cls-24" x="4236.29" y="2786.71" width="17" height="23" transform="translate(-4225.97 -2643.36) rotate(-0.24)"/></g></g><g class="cls-38"><g class="cls-23"><rect class="cls-24" x="4214.27" y="2786.79" width="21" height="17" transform="translate(-4225.96 -2643.45) rotate(-0.24)"/></g></g><g class="cls-39"><g class="cls-23"><rect class="cls-24" x="4296.42" y="2816.44" width="22" height="25" transform="translate(-4226.1 -2643.1) rotate(-0.24)"/></g></g><g class="cls-40"><g class="cls-23"><rect class="cls-24" x="4234.43" y="2819.71" width="21" height="23" transform="translate(-4226.11 -2643.36) rotate(-0.24)"/></g></g><g class="cls-41"><g class="cls-23"><rect class="cls-24" x="4279.54" y="2846.52" width="21" height="23" transform="translate(-4226.22 -2643.17) rotate(-0.24)"/></g></g><g class="cls-42"><g class="cls-23"><rect class="cls-24" x="4214.78" y="2849.77" width="20.96" height="23.03" transform="translate(-4226.24 -2643.45) rotate(-0.24)"/></g></g><g class="cls-43"><g class="cls-23"><rect class="cls-24" x="4256.43" y="2820.62" width="18" height="21" transform="translate(-4226.11 -2643.28) rotate(-0.24)"/></g></g><g class="cls-44"><g class="cls-23"><rect class="cls-24" x="4234.55" y="2850.71" width="18" height="21" transform="translate(-4226.24 -2643.37) rotate(-0.24)"/></g></g><g class="cls-45"><g class="cls-23"><rect class="cls-24" x="4299.54" y="2847.44" width="18" height="21" transform="translate(-4226.22 -2643.09) rotate(-0.24)"/></g></g><g class="cls-46"><g class="cls-23"><rect class="cls-24" x="4276.42" y="2821.53" width="21" height="18" transform="translate(-4226.11 -2643.18) rotate(-0.24)"/></g></g><g class="cls-47"><g class="cls-23"><rect class="cls-24" x="4321.42" y="2819.34" width="18" height="23" transform="translate(-4226.11 -2643) rotate(-0.24)"/></g></g><g class="cls-48"><g class="cls-23"><rect class="cls-24" x="4253.54" y="2846.63" width="18" height="23" transform="translate(-4226.22 -2643.29) rotate(-0.24)"/></g></g><g class="cls-49"><g class="cls-23"><rect class="cls-24" x="4214.43" y="2822.58" width="20.31" height="19.36" transform="translate(-4226.11 -2643.45) rotate(-0.24)"/></g></g><g class="cls-50"><g class="cls-51"><rect class="cls-24" x="4674.13" y="3076.45" width="22" height="25" transform="translate(-4227.2 -2641.49) rotate(-0.24)"/></g></g><g class="cls-52"><g class="cls-51"><rect class="cls-24" x="4696.13" y="3077.35" width="21" height="23" transform="translate(-4227.2 -2641.4) rotate(-0.24)"/></g></g><g class="cls-53"><g class="cls-51"><rect class="cls-24" x="4717.13" y="3079.27" width="18" height="21" transform="translate(-4227.21 -2641.31) rotate(-0.24)"/></g></g><g class="cls-54"><g class="cls-51"><rect class="cls-24" x="4741.13" y="3079.17" width="18" height="21" transform="translate(-4227.2 -2641.21) rotate(-0.24)"/></g></g><g class="cls-55"><g class="cls-51"><rect class="cls-24" x="4762.13" y="3077.08" width="17" height="23" transform="translate(-4227.2 -2641.12) rotate(-0.24)"/></g></g><g class="cls-56"><g class="cls-51"><rect class="cls-24" x="4779.85" y="3082.89" width="20.6" height="17.61" transform="translate(-4227.21 -2641.04) rotate(-0.24)"/></g></g><g class="cls-57"><g class="cls-51"><rect class="cls-24" x="4778.27" y="3108" width="22" height="25" transform="translate(-4227.34 -2641.04) rotate(-0.24)"/></g></g><g class="cls-58"><g class="cls-51"><rect class="cls-24" x="4757.27" y="3109.09" width="21" height="23" transform="translate(-4227.34 -2641.14) rotate(-0.24)"/></g></g><g class="cls-59"><g class="cls-51"><rect class="cls-24" x="4740.26" y="3108.17" width="18" height="21" transform="translate(-4227.33 -2641.21) rotate(-0.24)"/></g></g><g class="cls-60"><g class="cls-51"><rect class="cls-24" x="4716.26" y="3109.28" width="18" height="21" transform="translate(-4227.33 -2641.32) rotate(-0.24)"/></g></g><g class="cls-61"><g class="cls-51"><rect class="cls-24" x="4696.27" y="3109.36" width="17" height="23" transform="translate(-4227.34 -2641.4) rotate(-0.24)"/></g></g><g class="cls-62"><g class="cls-51"><rect class="cls-24" x="4674.25" y="3109.45" width="21" height="17" transform="translate(-4227.33 -2641.49) rotate(-0.24)"/></g></g><path class="cls-63" d="M4385.89,3017.87c10-2.45,9.69,20-3.92,20s-14.9-18-3.73-29.22,18.13,4.06,18.13,4.06c7.3,12.14,12.56,20.53,17.57,41.38s23.73,58.45,24.12,80.77,8.46,80.83,11.11,91.26,3.8,7.52,9.31,8.08,11.88-.06,17.39-.08,5.2-4.95,5.07-36.25-7.51-29.84-4.33-62.6-14.95-39.94,6.49-42.35,21.32-29.94,41.62-28.58,59.08,124.39,62,137.13,6.4,4,6.37-1.76,11.66,15.6,12,20.24,43.71,15,34.75,2-46.77-106.67-55.25-146.41c0,0-11.69-23.49-1.39-24.18,18.9-1.25,9.77-6.74,21.93-5.18s21.07-2.79,11.71-15.1-32.6-20.13-25.92-21.33,37.14,37.21,49.73,37.94,31-17.44,38.45-25.34-1.62-10.61-8.37-11S4658.4,2998,4658.4,2998s-23.75-31-25.9-63.69-25.32-47.62-11.27-51.19,16.48-24.19,27.49-34.78,23-24.22,21-25.72-30.11,8.67-44.63,21.29-30.06,18.22-37.6,18.25-19.1-3.44-19.1-3.44-1.67-37.16-23.78-39.08-29.09,11.68-30.51,30.78-5-1.49-40.62,17.25-59.61,42-76.13,54.58-58.61,41.45-62.89,97.73-11.27,67.37-21.75,82.48-7.36,42.24,6.78,58.75,19.2,26.55,48.84,24.92,38.16-3.68,45.74,6.33,25,16.74,32.08,16.71" transform="translate(-4214.1 -2661.46)"/><path class="cls-63" d="M4480.16,3177.19c11.58,0,20.81-8.09,20.81-8.09,35.6-19.15,38,11.35,41.51,15.36s71.44,17.54,89.28,17.46,12.64-5.23,26.45-5.86-5.27-20.7-21.4-25.24-56.49-21.05-76.74-44-42.07-64.94-37.49-52.4,1.63,9-9.32,54.77c-4.69,19.66-25.75,39.5-35.81,37.53" transform="translate(-4214.1 -2661.46)"/><path class="cls-63" d="M4327,3073s-8.56,26.67.22,51.07c0,0,26.07,46.84-20.51,45.19l-16,.07-1.59-374.78,213.22-127.2,227.23,117.92,1.62,382.24-60.69.26" transform="translate(-4214.1 -2661.46)"/></g></g></svg>