<?xml version="1.0" encoding="UTF-8"?>
<svg width="379px" height="375px" viewBox="0 0 379 375" version="1.1" xmlns="http://www.w3.org/2000/svg" xmlns:xlink="http://www.w3.org/1999/xlink">
    <!-- Generator: Sketch 63.1 (92452) - https://sketch.com -->
    <title>Group 132 Copy</title>
    <desc>Created with Sketch.</desc>
    <defs>
        <path d="M5.1046706,2.72954386 C-6.74752287,13.4836842 5.77889717,41.5126877 5.77889717,41.5126877 L5.77889717,41.5126877 C5.77889717,41.5126877 32.5350465,56.6373789 44.3865828,45.8832386 L44.3865828,45.8832386 C56.237462,35.1271298 31.8549057,17.8483298 22.3703909,26.4562351 L22.3703909,26.4562351 C30.2665961,19.289214 21.261137,0.156161404 11.1851954,0.154192982 L11.1851954,0.154192982 C9.15857288,0.154192982 7.08989329,0.928438596 5.1046706,2.72954386 L5.1046706,2.72954386 Z" id="path-1"></path>
        <path d="M17.8696328,0.950091228 C1.79530897,5.59359649 0.488912838,37.1618211 0.488912838,37.1618211 L0.488912838,37.1618211 C0.488912838,37.1618211 18.4761739,63.164007 34.5511548,58.5211579 L34.5511548,58.5211579 C50.6254786,53.8776526 35.8549224,26.9444035 22.9907319,30.6614386 L22.9907319,30.6614386 C34.9520108,27.2062035 34.137156,0.475045614 21.0423091,0.472421053 L21.0423091,0.472421053 C20.0539692,0.472421053 18.9972866,0.623989474 17.8696328,0.950091228 L17.8696328,0.950091228 Z" id="path-3"></path>
        <path d="M1.39182445,8.24243509 C-4.73601455,19.3928842 17.2394347,25.6327789 22.1443344,16.7092702 L22.1443344,16.7092702 C17.2394347,25.6327789 34.3099841,40.7876526 40.4378231,29.6378596 L40.4378231,29.6378596 C46.5663192,18.4874105 30.7226519,1.10034737 30.7226519,1.10034737 L30.7226519,1.10034737 C30.7226519,1.10034737 26.6634925,0.399589474 21.4944221,0.399589474 L21.4944221,0.399589474 C14.3013576,0.399589474 4.95681389,1.75583158 1.39182445,8.24243509 L1.39182445,8.24243509 Z" id="path-5"></path>
        <path d="M4.92395685,0.253270175 L2.53722106,1.87721754 C2.53722106,1.87721754 -1.70725209,5.11198947 1.20125359,7.8946807 L1.20125359,7.8946807 C4.11107354,10.6767158 3.6510749,10.7160842 4.96075674,8.63480702 L4.96075674,8.63480702 C7.08003618,5.26487018 10.7008826,0.253270175 4.96667101,0.252614035 L4.96667101,0.252614035 C4.95221391,0.252614035 4.93907109,0.253270175 4.92395685,0.253270175 L4.92395685,0.253270175 Z" id="path-7"></path>
        <path d="M0.72154072,2.65146316 C-0.279942028,5.48795789 -0.0183999455,8.93335088 2.67916349,8.72141754 L2.67916349,8.72141754 C5.37869836,8.51014035 10.1482271,0.481607018 5.34386989,0.209964912 L5.34386989,0.209964912 C5.34386989,0.209964912 5.17235611,0.190936842 4.89307122,0.190936842 L4.89307122,0.190936842 C3.89158848,0.190936842 1.5035384,0.431740351 0.72154072,2.65146316 L0.72154072,2.65146316 Z" id="path-9"></path>
        <path d="M1.8583945,0.190280702 C1.8583945,0.190280702 0.169542355,0.78605614 0.174787234,1.96907719 L0.174787234,1.96907719 C0.179399469,3.15144211 1.12239668,7.58038947 3.88567421,7.34614737 L3.88567421,7.34614737 C6.64895174,7.11321754 4.48432958,3.72294035 5.24464161,1.9480807 L5.24464161,1.9480807 C5.86301121,0.50457193 4.86284274,0.139757895 3.1483621,0.139757895 L3.1483621,0.139757895 C2.75210614,0.139757895 2.31839313,0.159442105 1.8583945,0.190280702 L1.8583945,0.190280702 Z" id="path-11"></path>
        <path d="M0.17280087,1.43629123 L0.183999455,4.24588421 C0.200427978,7.99113333 2.94727699,7.56070526 4.4573868,6.71887719 L4.4573868,6.71887719 C5.96355377,5.87442456 5.39644116,1.62460351 4.98178525,1.31096842 L4.98178525,1.31096842 C4.71827174,1.11281404 2.83622017,0.0807043061 1.50616697,0.0807043061 L1.50616697,0.0807043061 C0.747826357,0.0800491228 0.168228073,0.416649123 0.17280087,1.43629123 L0.17280087,1.43629123 Z" id="path-13"></path>
        <path d="M0.168228073,0.990115789 C0.302284819,3.42505263 0.294399128,1.50912281 0.302284819,3.42505263 L0.302284819,3.42505263 C0.302284819,3.42505263 0.0229999319,3.02677544 0.311484792,5.33967018 L0.311484792,5.33967018 C0.59865537,7.65518947 0.741912089,8.69582807 1.71579492,8.53507368 L1.71579492,8.53507368 C2.69033489,8.37497544 3.38558997,8.228 4.21687323,7.05613333 L4.21687323,7.05613333 C5.04487077,5.88557895 4.89701407,3.40405614 4.197159,2.38638246 L4.197159,2.38638246 C3.69576048,1.66200351 1.79530897,0.0249333333 0.791854798,0.0249333333 L0.791854798,0.0249333333 C0.387713138,0.0249333333 0.129456759,0.290670175 0.168228073,0.990115789 L0.168228073,0.990115789 Z" id="path-15"></path>
        <path d="M0.167570932,0.990115789 C0.302284819,3.42505263 0.294399128,1.50977895 0.302284819,3.42505263 L0.302284819,3.42505263 C0.302284819,3.42505263 0.0229999319,3.02677544 0.311484792,5.33967018 L0.311484792,5.33967018 C0.59865537,7.65518947 0.741912089,8.69648421 1.71579492,8.53441754 L1.71579492,8.53441754 C2.69033489,8.3743193 3.38558997,8.228 4.21687323,7.05613333 L4.21687323,7.05613333 C5.04487077,5.88557895 4.89701407,3.40471228 4.19650186,2.3870386 L4.19650186,2.3870386 C3.69576048,1.66265965 1.79530897,0.0249333333 0.791854798,0.0249333333 L0.791854798,0.0249333333 C0.387713138,0.0249333333 0.129456759,0.290670175 0.167570932,0.990115789 L0.167570932,0.990115789 Z" id="path-17"></path>
        <path d="M0.168228073,0.990115789 C0.302284819,3.42505263 0.294399128,1.50912281 0.302284819,3.42505263 L0.302284819,3.42505263 C0.302284819,3.42505263 0.0229999319,3.02677544 0.311484792,5.33967018 L0.311484792,5.33967018 C0.59865537,7.65518947 0.741912089,8.69582807 1.71579492,8.53507368 L1.71579492,8.53507368 C2.69033489,8.37497544 3.38558997,8.228 4.21687323,7.05613333 L4.21687323,7.05613333 C5.04487077,5.88557895 4.89701407,3.40405614 4.197159,2.38638246 L4.197159,2.38638246 C3.69576048,1.66200351 1.79530897,0.0249333333 0.791854798,0.0249333333 L0.791854798,0.0249333333 C0.387713138,0.0249333333 0.129456759,0.290670175 0.168228073,0.990115789 L0.168228073,0.990115789 Z" id="path-19"></path>
        <path d="M3.3731043,2.08652632 C1.24856773,5.46564912 -2.38542151,10.4916842 3.40924705,10.4674946 L3.40924705,10.4674946 L5.79598284,8.84149123 C5.79598284,8.84149123 10.0424274,5.60803158 7.13392173,2.82534035 L7.13392173,2.82534035 C5.56138353,1.32343509 4.97192813,0.620052632 4.55727222,0.620052632 L4.55727222,0.620052632 C4.20373041,0.620052632 3.97504537,1.12921754 3.3731043,2.08652632 L3.3731043,2.08652632 Z" id="path-21"></path>
        <path d="M3.3731043,1.66725263 C1.24856773,5.04440702 -2.38607865,10.0724105 3.40858991,10.0469183 L3.40858991,10.0469183 L5.79663998,8.42090526 C5.79663998,8.42090526 10.0417703,5.18875789 7.13326459,2.40541053 L7.13326459,2.40541053 C5.56072639,0.902849123 4.97258527,0.200122807 4.55661508,0.200122807 L4.55661508,0.200122807 C4.20373041,0.200122807 3.97570251,0.709287719 3.3731043,1.66725263 L3.3731043,1.66725263 Z" id="path-23"></path>
        <path d="M4.99755663,0.0295263158 C2.29802177,0.24277193 -2.47216411,8.26999298 2.33350738,8.54229123 L2.33350738,8.54229123 C2.33350738,8.54229123 5.95501094,8.9353193 6.95583654,6.09882456 L6.95583654,6.09882456 C7.92709081,3.34894035 7.70826289,0.0203403509 5.22887023,0.0203403509 L5.22887023,0.0203403509 C5.15395617,0.0203403509 5.07641354,0.0229649123 4.99755663,0.0295263158 L4.99755663,0.0295263158 Z" id="path-25"></path>
        <path d="M1.81699462,0.0892350877 C-0.946282912,0.324789474 1.21768211,3.71309825 0.457370074,5.48927018 L0.457370074,5.48927018 C-0.30294196,7.26544211 1.3878816,7.40585614 3.84427433,7.24707018 L3.84427433,7.24707018 C3.84427433,7.24707018 5.53312647,6.64932632 5.52853586,5.46761754 L5.52853586,5.46761754 C5.5239265,4.31609123 4.62824344,0.0800491228 2.02465115,0.0800491228 L2.02465115,0.0800491228 C1.95696563,0.0800491228 1.8873087,0.0833298246 1.81699462,0.0892350877 L1.81699462,0.0892350877 Z" id="path-27"></path>
        <path d="M1.24922487,0.718473684 C-0.257599237,1.56161404 0.308856228,5.81340351 0.723512143,6.12375789 L0.723512143,6.12375789 C1.13751092,6.43739298 5.54495501,8.80737193 5.53249581,5.99909123 L5.53249581,5.99909123 L5.52129793,3.19212281 C5.51144082,0.854294737 4.43832971,0.143038596 3.26599033,0.142382456 L3.26599033,0.142382456 C2.55890671,0.142382456 1.81633748,0.400901754 1.24922487,0.718473684 L1.24922487,0.718473684 Z" id="path-29"></path>
        <path d="M1.42008151,1.19614386 C-0.0873997412,2.03928421 0.479055724,6.29172982 0.893711639,6.60208421 L0.893711639,6.60208421 C1.30771041,6.91309474 5.71449736,9.28438596 5.70269259,6.47741754 L5.70269259,6.47741754 L5.69149743,3.67044912 C5.68164032,1.33262105 4.60787207,0.620708772 3.43618982,0.620708772 L3.43618982,0.620708772 C2.7291062,0.620708772 1.98719412,0.87922807 1.42008151,1.19614386 L1.42008151,1.19614386 Z" id="path-31"></path>
        <path d="M3.33170442,0.213245614 C2.35782159,0.375312281 1.6625665,0.52294386 0.831940393,1.69349825 L0.831940393,1.69349825 C0.00328570456,2.86602105 0.15179955,5.34426316 0.851654621,6.36193684 L0.851654621,6.36193684 C1.55216683,7.37961053 5.01332801,10.1931404 4.87992841,7.75820351 L4.87992841,7.75820351 C4.74587166,5.32523509 4.75375735,7.23919649 4.74587166,5.32523509 L4.74587166,5.32523509 C4.74587166,5.32523509 5.02581369,5.7222 4.73732883,3.4099614 L4.73732883,3.4099614 C4.4685582,1.24863509 4.32530148,0.197498246 3.51438959,0.197498246 L3.51438959,0.197498246 C3.45721833,0.197498246 3.39676137,0.202747368 3.33170442,0.213245614 L3.33170442,0.213245614 Z" id="path-33"></path>
        <path d="M3.56170374,0.369407018 C2.08576525,0.669919298 -0.126171055,1.8667193 0.321341906,3.37715439 L0.321341906,3.37715439 C0.772797711,4.88824561 2.40119289,5.30358246 6.38740966,4.32724561 L6.38740966,4.32724561 C7.91066229,3.95390175 7.41057805,1.73417895 7.40794949,1.05572982 L7.40794949,1.05572982 C7.40597807,0.553782456 6.11272475,0.253270175 4.84115709,0.253270175 L4.84115709,0.253270175 C4.39232985,0.253270175 3.94744545,0.290670175 3.56170374,0.369407018 L3.56170374,0.369407018 Z" id="path-35"></path>
        <path d="M3.4920468,8.41303158 C4.8155286,10.4824982 4.3561871,10.4457544 7.24234998,7.64009825 L7.24234998,7.64009825 C10.1278557,4.83312982 5.85446838,1.63510175 5.85446838,1.63510175 L5.85446838,1.63510175 L3.45458977,0.0308385965 C-2.34205021,0.0544596491 1.33465319,5.05293684 3.4920468,8.41303158 L3.4920468,8.41303158 Z" id="path-37"></path>
        <path d="M2.39002149,0.228336842 C-2.41236428,0.541315789 2.42616424,8.52851228 5.12504197,8.71813684 L5.12504197,8.71813684 C7.82523397,8.90579298 8.05786185,5.45777544 7.03272203,2.63177895 L7.03272203,2.63177895 C6.24415294,0.456673684 3.92444552,0.20537193 2.89339143,0.20537193 L2.89339143,0.20537193 C2.58322092,0.20537193 2.39002149,0.228336842 2.39002149,0.228336842 L2.39002149,0.228336842 Z" id="path-39"></path>
        <path d="M2.46493556,0.103014035 C-2.33745022,0.414024561 2.50107831,8.40384561 5.20192745,8.59281404 L5.20192745,8.59281404 C7.90014803,8.78047018 8.13277592,5.33245263 7.10763609,2.5058 L7.10763609,2.5058 C6.31972414,0.331350877 4.00001673,0.0800491228 2.96896264,0.0800491228 L2.96896264,0.0800491228 C2.65813499,0.0800491228 2.46493556,0.103014035 2.46493556,0.103014035 L2.46493556,0.103014035 Z" id="path-41"></path>
        <path d="M2.61279226,0.267049123 C-2.17316499,0.57937193 2.64827787,8.58428421 5.33861276,8.77390877 L5.33861276,8.77390877 C8.02894765,8.96222105 8.25960411,5.50829825 7.23840714,2.67442807 L7.23840714,2.67442807 C6.45443803,0.495385965 4.1426163,0.244084211 3.11484792,0.244084211 L3.11484792,0.244084211 C2.80599169,0.244084211 2.61279226,0.267049123 2.61279226,0.267049123 L2.61279226,0.267049123 Z" id="path-43"></path>
        <path d="M0.540169829,1.97038947 C1.31625324,3.74065614 -0.821426139,7.14799298 1.94645138,7.35730175 L1.94645138,7.35730175 C4.71235747,7.56726667 5.61526908,3.13110175 5.61068657,1.94939298 L5.61068657,1.94939298 C5.60672625,0.76702807 3.91327413,0.183063158 3.91327413,0.183063158 L3.91327413,0.183063158 C3.49598965,0.160098246 3.10104796,0.145663158 2.73633475,0.145663158 L2.73633475,0.145663158 C0.951540039,0.145663158 -0.103828264,0.501291228 0.540169829,1.97038947 L0.540169829,1.97038947 Z" id="path-45"></path>
        <path d="M0.624941006,2.03141053 C1.40102442,3.80102105 -0.737312102,7.20901404 2.03056542,7.42029123 L2.03056542,7.42029123 C4.79647151,7.62894386 5.69938312,3.19343509 5.6941488,2.00910175 L5.6941488,2.00910175 C5.68952601,0.828049123 3.99738816,0.246052632 3.99738816,0.246052632 L3.99738816,0.246052632 C3.57813226,0.221775439 3.18187629,0.206684211 2.81650594,0.206684211 L2.81650594,0.206684211 C1.03368265,0.206684211 -0.0190570864,0.563624561 0.624941006,2.03141053 L0.624941006,2.03141053 Z" id="path-47"></path>
        <path d="M0.616398175,1.85031579 C1.39182445,3.62058246 -0.745854934,7.02726316 2.0207083,7.23788421 L2.0207083,7.23788421 C4.7866144,7.4458807 5.69084029,3.01168421 5.68625775,1.8293193 L5.68625775,1.8293193 C5.68098318,0.647610526 3.98753105,0.0629894737 3.98753105,0.0629894737 L3.98753105,0.0629894737 C3.57024657,0.0400245614 3.17464774,0.0249333333 2.80993454,0.0249333333 L2.80993454,0.0249333333 C1.0264541,0.0249333333 -0.0275999183,0.382529825 0.616398175,1.85031579 L0.616398175,1.85031579 Z" id="path-49"></path>
        <path d="M0.919997275,1.0911614 C0.0893711639,2.60487719 -0.31739906,5.35213684 3.43356126,5.33573333 L3.43356126,5.33573333 L6.2467815,5.32457895 C9.05803032,5.31211228 6.64698032,0.931063158 6.33089554,0.520319298 L6.33089554,0.520319298 C6.174496,0.316915789 5.05275647,0.0839859649 3.85807429,0.0839859649 L3.85807429,0.0839859649 C2.63710648,0.0839859649 1.3412246,0.326757895 0.919997275,1.0911614 L0.919997275,1.0911614 Z" id="path-51"></path>
        <path d="M1.10071103,3.70522456 C0.518484179,6.00630877 0.852311762,5.64215088 0.852311762,5.64215088 L0.852311762,5.64215088 C0.603255356,7.57776491 0.852311762,5.64215088 0.41137021,8.0849614 L0.41137021,8.0849614 C-0.0302284819,10.5264596 3.83244579,8.16304211 4.6709576,7.23001053 L4.6709576,7.23001053 C5.5094694,6.29566667 5.97143946,3.80889474 5.27552723,2.51170526 L5.27552723,2.51170526 C4.58092929,1.21189123 3.8935599,0.965838596 2.92756276,0.669919298 L2.92756276,0.669919298 C2.81913451,0.63645614 2.71924909,0.619396491 2.6279065,0.619396491 L2.6279065,0.619396491 C1.89453725,0.619396491 1.6191952,1.66134737 1.10071103,3.70522456 L1.10071103,3.70522456 Z" id="path-53"></path>
        <path d="M1.17628223,3.24002105 C0.594055384,5.5384807 0.927882966,5.17432281 0.927882966,5.17432281 L0.927882966,5.17432281 C0.67816942,7.11124912 0.927882966,5.17432281 0.486941415,7.61844561 L0.486941415,7.61844561 C0.044685582,10.0606 3.90933128,7.69521404 4.74718594,6.76218246 L4.74718594,6.76218246 C5.58569774,5.83046316 6.0476678,3.34303509 5.35109844,2.04387719 L5.35109844,2.04387719 C4.65715764,0.744719298 3.96847396,0.499322807 3.00313396,0.203403509 L3.00313396,0.203403509 C2.89404857,0.170596491 2.79482029,0.153536842 2.70282057,0.153536842 L2.70282057,0.153536842 C1.96945131,0.153536842 1.69410927,1.19614386 1.17628223,3.24002105 L1.17628223,3.24002105 Z" id="path-55"></path>
        <path d="M2.2231077,1.31949825 C1.09151105,2.25646667 -0.051914132,4.2636 0.520455602,4.69599649 L0.520455602,4.69599649 C1.09216819,5.1303614 2.67259209,6.92424912 3.89421704,5.99712281 L3.89421704,5.99712281 C7.0852933,3.56874737 7.7003772,2.05896842 6.68903733,0.753905263 L6.68903733,0.753905263 C6.33220982,0.293294737 5.80978279,0.11154386 5.23347022,0.11154386 L5.23347022,0.11154386 C4.18335904,0.11154386 2.95450554,0.714536842 2.2231077,1.31949825 L2.2231077,1.31949825 Z" id="path-57"></path>
        <path d="M4.91212831,0.026245614 L2.52539252,1.65084912 C2.52539252,1.65084912 -1.72039491,4.88562105 1.18811077,7.667 L1.18811077,7.667 C4.09793072,10.4496912 3.63793208,10.4897158 4.94695678,8.40778246 L4.94695678,8.40778246 C7.0675505,5.03784561 10.6877398,0.0275578947 4.95484247,0.026245614 L4.95484247,0.026245614 C4.94104251,0.026245614 4.92724255,0.026245614 4.91212831,0.026245614 L4.91212831,0.026245614 Z" id="path-59"></path>
        <path d="M0.708397902,3.08123509 C-0.293084846,5.91772982 -0.0308856228,9.36312281 2.66667782,9.15250175 L2.66667782,9.15250175 C5.36621268,8.93991228 10.1363986,0.911378947 5.33072707,0.640392982 L5.33072707,0.640392982 C5.33072707,0.640392982 5.15921329,0.621363583 4.88124269,0.621363583 L4.88124269,0.621363583 C3.8791028,0.620708772 1.49170987,0.862168421 0.708397902,3.08123509 L0.708397902,3.08123509 Z" id="path-61"></path>
        <path d="M1.84525168,0.619396491 C1.84525168,0.619396491 0.157056678,1.21582807 0.161647281,2.39884912 L0.161647281,2.39884912 C0.166913791,3.58121404 1.10859672,8.00950526 3.87253139,7.77657544 L3.87253139,7.77657544 C6.63646606,7.54298947 4.4718439,4.15271228 5.23281307,2.37785263 L5.23281307,2.37785263 C5.84986839,0.935 4.84904278,0.569529825 3.133905,0.569529825 L3.133905,0.569529825 C2.73830618,0.569529825 2.30525032,0.588557895 1.84525168,0.619396491 L1.84525168,0.619396491 Z" id="path-63"></path>
        <path d="M0.159658021,1.8667193 L0.171513778,4.675 C0.18728516,8.42024912 2.93413417,7.99047719 4.44424398,7.14864912 L4.44424398,7.14864912 C5.95106809,6.30419649 5.38461263,2.05306316 4.96864243,1.74139649 L4.96864243,1.74139649 C4.70512892,1.54324211 2.82373449,0.510473381 1.49368129,0.510473381 L1.49368129,0.510473381 C0.734026398,0.509164912 0.155085255,0.846421053 0.159658021,1.8667193 L0.159658021,1.8667193 Z" id="path-65"></path>
        <path d="M0.155085255,1.41923158 C0.289799142,3.85416842 0.28125631,1.93955088 0.289799142,3.85416842 L0.289799142,3.85416842 C0.289799142,3.85416842 0.00985711367,3.45720351 0.298341974,5.77009825 L0.298341974,5.77009825 C0.585512552,8.08430526 0.729426411,9.12494386 1.70330924,8.96484561 L1.70330924,8.96484561 C2.67719207,8.80474737 3.37244716,8.65777193 4.20373041,7.48524912 L4.20373041,7.48524912 C5.0323851,6.31469474 4.88387125,3.83514035 4.18401618,2.81615439 L4.18401618,2.81615439 C3.68393195,2.09046316 1.78216615,0.454049123 0.77871198,0.454049123 L0.77871198,0.454049123 C0.37522746,0.454049123 0.116971082,0.720442105 0.155085255,1.41923158 L0.155085255,1.41923158 Z" id="path-67"></path>
        <path d="M1.6993664,0.885789474 C0.231970742,1.29062807 0.71431217,3.70325614 0.716940734,4.44141404 L0.716940734,4.44141404 C0.720883579,5.17891579 2.99984826,5.51551579 4.42321547,5.18941404 L4.42321547,5.18941404 C5.8452684,4.86331228 7.97571924,3.56415439 7.54266338,1.92183509 L7.54266338,1.92183509 C7.26600705,0.877259649 6.53132351,0.314947368 5.04749934,0.314947368 L5.04749934,0.314947368 C4.19650186,0.314947368 3.09907654,0.499978947 1.6993664,0.885789474 L1.6993664,0.885789474 Z" id="path-69"></path>
        <path d="M3.36127576,1.86015789 C1.23542491,5.23796842 -2.39856433,10.2659719 3.39676137,10.241131 L3.39676137,10.241131 L5.78349716,8.61577895 C5.78349716,8.61577895 10.0292846,5.38297544 7.12077891,2.59897193 L7.12077891,2.59897193 C5.54889785,1.09641053 4.95944246,0.394340351 4.54478654,0.393684211 L4.54478654,0.393684211 C4.19124473,0.393684211 3.96321683,0.902849123 3.36127576,1.86015789 L3.36127576,1.86015789 Z" id="path-71"></path>
        <path d="M4.98507095,0.458642105 C2.28553609,0.671887719 -2.48399264,8.69976491 2.32036456,8.97140702 L2.32036456,8.97140702 C2.32036456,8.97140702 5.9431824,9.36509123 6.94269373,6.52859649 L6.94269373,6.52859649 C7.91460513,3.77674386 7.69577721,0.44945614 5.21638455,0.44945614 L5.21638455,0.44945614 C5.14081335,0.44945614 5.06392786,0.452080702 4.98507095,0.458642105 L4.98507095,0.458642105 Z" id="path-73"></path>
        <path d="M1.80450894,0.519663158 C-0.95942573,0.754561404 1.20519643,4.14287018 0.444884397,5.91904211 L0.444884397,5.91904211 C-0.314770496,7.69521404 1.37473879,7.83562807 3.83244579,7.67749825 L3.83244579,7.67749825 C3.83244579,7.67749825 5.52064079,7.07909825 5.51539592,5.89738947 L5.51539592,5.89738947 C5.51078368,4.74586316 4.61575776,0.511133333 2.01216547,0.510477193 L2.01216547,0.510477193 C1.94382281,0.510477193 1.87482302,0.513101754 1.80450894,0.519663158 L1.80450894,0.519663158 Z" id="path-75"></path>
        <path d="M1.23673919,1.14758947 C-0.270084914,1.99072982 0.29571341,6.24317544 0.710369325,6.55418596 L0.710369325,6.55418596 C1.12502524,6.86650877 5.53181219,9.23648772 5.520662,6.42886316 L5.520662,6.42886316 L5.50815512,3.62189474 C5.49764086,1.28406667 4.4251869,0.572154386 3.25350465,0.572154386 L3.25350465,0.572154386 C2.54642103,0.572154386 1.80450894,0.831329825 1.23673919,1.14758947 L1.23673919,1.14758947 Z" id="path-77"></path>
        <path d="M3.31921874,0.642361404 C2.34533591,0.80442807 1.65073797,0.952059649 0.819454716,2.12261404 L0.819454716,2.12261404 C-0.00985711367,3.29513684 0.138656732,5.77469123 0.838511803,6.79170877 L0.838511803,6.79170877 C1.53902401,7.80938246 5.00084233,10.6222561 4.86744273,8.18797544 L4.86744273,8.18797544 C4.73338598,5.75500702 4.74192881,7.66896842 4.73338598,5.75500702 L4.73338598,5.75500702 C4.73338598,5.75500702 5.01267087,6.15197193 4.72418601,3.83973333 L4.72418601,3.83973333 C4.45607252,1.67840702 4.31215866,0.627270175 3.50124677,0.627270175 L3.50124677,0.627270175 C3.44341837,0.627270175 3.38296141,0.631863158 3.31921874,0.642361404 L3.31921874,0.642361404 Z" id="path-79"></path>
        <path d="M3.54921806,0.143038596 C2.07262243,0.443550877 -0.139313873,1.64035088 0.309513369,3.15012982 L0.309513369,3.15012982 C0.760312034,4.66122105 2.38805007,5.07721404 6.37426684,4.10153333 L6.37426684,4.10153333 C7.89751947,3.72818947 7.39874952,1.50846667 7.39480667,0.828705263 L7.39480667,0.828705263 C7.39283525,0.326757895 6.09958194,0.0269017544 4.82801427,0.0269017544 L4.82801427,0.0269017544 C4.38050131,0.0269017544 3.93430263,0.0643017544 3.54921806,0.143038596 L3.54921806,0.143038596 Z" id="path-81"></path>
    </defs>
    <g id="ac-design" stroke="none" stroke-width="1" fill="none" fill-rule="evenodd">
        <g id="ac-adopt-tb" transform="translate(-331.000000, -172.000000)">
            <g id="Group-132-Copy" transform="translate(331.000000, 173.000000)">
                <g id="Group-131">
                    <g id="Group-3" transform="translate(313.456215, 143.281368)">
                        <mask id="mask-2" fill="white">
                            <use xlink:href="#path-1"></use>
                        </mask>
                        <g id="Clip-2"></g>
                        <polygon id="Fill-1" fill="#E5518D" mask="url(#mask-2)" points="12.3570091 -8.28600281 56.0588511 39.7231305 25.2008282 67.7265446 -18.5003566 19.7174112"></polygon>
                    </g>
                    <g id="Group-6" transform="translate(111.713955, 2.867333)">
                        <mask id="mask-4" fill="white">
                            <use xlink:href="#path-3"></use>
                        </mask>
                        <g id="Clip-5"></g>
                        <polygon id="Fill-4" fill="#7297FF" mask="url(#mask-4)" points="29.6480293 -5.86812561 48.155746 58.0058253 6.58698335 70.0138498 -11.9207333 6.13989895"></polygon>
                    </g>
                    <g id="Group-9" transform="translate(16.428523, 175.432246)">
                        <mask id="mask-6" fill="white">
                            <use xlink:href="#path-5"></use>
                        </mask>
                        <g id="Clip-8"></g>
                        <polygon id="Fill-7" fill="#FBB938" mask="url(#mask-6)" points="38.1022786 40.7063568 -6.70553157 16.1555533 9.89713355 -14.0531484 54.7049437 10.4976551"></polygon>
                    </g>
                    <g id="Group-12" transform="translate(0.000000, 60.607684)">
                        <mask id="mask-8" fill="white">
                            <use xlink:href="#path-7"></use>
                        </mask>
                        <g id="Clip-11"></g>
                        <polygon id="Fill-10" fill="#18186B" mask="url(#mask-8)" points="-3.14100213 -2.99396842 11.3160979 -3.05564561 11.3857549 13.3478632 -3.07134519 13.4095404"></polygon>
                    </g>
                    <g id="Group-15" transform="translate(14.457100, 61.263825)">
                        <mask id="mask-10" fill="white">
                            <use xlink:href="#path-9"></use>
                        </mask>
                        <g id="Clip-14"></g>
                        <polygon id="Fill-13" fill="#18186B" mask="url(#mask-10)" points="-3.13843928 -3.05544877 10.6615199 -3.11384526 10.7259197 11.9773828 -3.07338233 12.0357793"></polygon>
                    </g>
                    <g id="Group-18" transform="translate(28.257059, 62.576105)">
                        <mask id="mask-12" fill="white">
                            <use xlink:href="#path-11"></use>
                        </mask>
                        <g id="Clip-17"></g>
                        <polygon id="Fill-16" fill="#18186B" mask="url(#mask-12)" points="-3.13265644 -3.11410772 8.69587996 -3.16463053 8.7543655 10.6143168 -3.0741709 10.6648396"></polygon>
                    </g>
                    <g id="Group-21" transform="translate(44.028441, 62.576105)">
                        <mask id="mask-14" fill="white">
                            <use xlink:href="#path-13"></use>
                        </mask>
                        <g id="Clip-20"></g>
                        <polygon id="Fill-19" fill="#18186B" mask="url(#mask-14)" points="-3.13265644 -3.18103404 8.69522282 -3.23155684 8.7543655 10.5473905 -3.0741709 10.5979133"></polygon>
                    </g>
                    <g id="Group-24" transform="translate(57.828400, 61.263825)">
                        <mask id="mask-16" fill="white">
                            <use xlink:href="#path-15"></use>
                        </mask>
                        <g id="Clip-23"></g>
                        <polygon id="Fill-22" fill="#18186B" mask="url(#mask-16)" points="-3.13843928 -3.23969298 8.03229907 -3.28693509 8.09735602 11.8036368 -3.07403947 11.8515351"></polygon>
                    </g>
                    <g id="Group-27" transform="translate(57.828400, 61.263825)">
                        <mask id="mask-18" fill="white">
                            <use xlink:href="#path-17"></use>
                        </mask>
                        <g id="Clip-26"></g>
                        <polygon id="Fill-25" fill="#18186B" mask="url(#mask-18)" points="8.13757304 -3.30058281 19.3089685 -3.34782491 19.3733683 11.742747 8.20197285 11.7906453"></polygon>
                    </g>
                    <g id="Group-30" transform="translate(57.828400, 61.263825)">
                        <mask id="mask-20" fill="white">
                            <use xlink:href="#path-19"></use>
                        </mask>
                        <g id="Clip-29"></g>
                        <polygon id="Fill-28" fill="#18186B" mask="url(#mask-20)" points="9.72200549 -3.23969298 20.893401 -3.28693509 20.9578008 11.8036368 9.78706244 11.8515351"></polygon>
                    </g>
                    <g id="Group-33" transform="translate(68.342655, 80.948035)">
                        <mask id="mask-22" fill="white">
                            <use xlink:href="#path-21"></use>
                        </mask>
                        <g id="Clip-32"></g>
                        <polygon id="Fill-31" fill="#18186B" mask="url(#mask-22)" points="-3.05176239 -2.62843263 11.4046805 -2.69010982 11.4743374 13.7133989 -2.98210545 13.7750761"></polygon>
                    </g>
                    <g id="Group-36" transform="translate(68.342655, 59.951544)">
                        <mask id="mask-24" fill="white">
                            <use xlink:href="#path-23"></use>
                        </mask>
                        <g id="Clip-35"></g>
                        <polygon id="Fill-34" fill="#18186B" mask="url(#mask-24)" points="-3.05176239 -3.04875614 11.4046805 -3.11043333 11.4743374 13.2930754 -2.98210545 13.3547526"></polygon>
                    </g>
                    <g id="Group-39" transform="translate(54.542696, 82.260316)">
                        <mask id="mask-26" fill="white">
                            <use xlink:href="#path-25"></use>
                        </mask>
                        <g id="Clip-38"></g>
                        <polygon id="Fill-37" fill="#18186B" mask="url(#mask-26)" points="-3.04919954 -3.22591404 10.7507596 -3.28431053 10.8151594 11.8069175 -2.98479973 11.865314"></polygon>
                    </g>
                    <g id="Group-42" transform="translate(43.371300, 81.604175)">
                        <mask id="mask-28" fill="white">
                            <use xlink:href="#path-27"></use>
                        </mask>
                        <g id="Clip-41"></g>
                        <polygon id="Fill-40" fill="#18186B" mask="url(#mask-28)" points="-3.05176239 -3.17847509 8.77677401 -3.22899789 8.83525955 10.5499495 -2.99261971 10.6004723"></polygon>
                    </g>
                    <g id="Group-45" transform="translate(27.599918, 82.260316)">
                        <mask id="mask-30" fill="white">
                            <use xlink:href="#path-29"></use>
                        </mask>
                        <g id="Clip-44"></g>
                        <polygon id="Fill-43" fill="#18186B" mask="url(#mask-30)" points="-3.04860811 -3.11154877 8.77927114 -3.16141544 8.83841383 10.6168758 -2.99012257 10.6673986"></polygon>
                    </g>
                    <g id="Group-48" transform="translate(69.656937, 121.628737)">
                        <mask id="mask-32" fill="white">
                            <use xlink:href="#path-31"></use>
                        </mask>
                        <g id="Clip-47"></g>
                        <polygon id="Fill-46" fill="#18186B" mask="url(#mask-32)" points="-2.87854005 -2.63446912 8.94999635 -2.68499193 9.00848189 11.0939554 -2.82005451 11.1444782"></polygon>
                    </g>
                    <g id="Group-51" transform="translate(14.457100, 82.260316)">
                        <mask id="mask-34" fill="white">
                            <use xlink:href="#path-33"></use>
                        </mask>
                        <g id="Clip-50"></g>
                        <polygon id="Fill-49" fill="#18186B" mask="url(#mask-34)" points="-3.04860811 -3.05544877 8.12278737 -3.10269088 8.18718718 11.9878811 -2.98420831 12.0357793"></polygon>
                    </g>
                    <g id="Group-54" transform="translate(0.000000, 82.260316)">
                        <mask id="mask-36" fill="white">
                            <use xlink:href="#path-35"></use>
                        </mask>
                        <g id="Clip-53"></g>
                        <polygon id="Fill-52" fill="#18186B" mask="url(#mask-36)" points="-3.04860811 -2.99396842 10.751351 -3.05302105 10.7986652 8.10136491 -3.00129397 8.16041754"></polygon>
                    </g>
                    <g id="Group-57" transform="translate(53.885555, 101.944526)">
                        <mask id="mask-38" fill="white">
                            <use xlink:href="#path-37"></use>
                        </mask>
                        <g id="Clip-56"></g>
                        <polygon id="Fill-55" fill="#18186B" mask="url(#mask-38)" points="-2.96515122 -3.22335509 11.4919488 -3.28503228 11.5616058 13.1184765 -2.89549428 13.1801537"></polygon>
                    </g>
                    <g id="Group-60" transform="translate(13.142818, 103.912947)">
                        <mask id="mask-40" fill="white">
                            <use xlink:href="#path-39"></use>
                        </mask>
                        <g id="Clip-59"></g>
                        <polygon id="Fill-58" fill="#18186B" mask="url(#mask-40)" points="-2.95614839 -3.05000281 10.8431536 -3.1083993 10.9082106 11.9821726 -2.89174858 12.0412253"></polygon>
                    </g>
                    <g id="Group-63" transform="translate(42.714159, 121.628737)">
                        <mask id="mask-42" fill="white">
                            <use xlink:href="#path-41"></use>
                        </mask>
                        <g id="Clip-62"></g>
                        <polygon id="Fill-61" fill="#18186B" mask="url(#mask-42)" points="-2.8811029 -3.17591614 10.9188562 -3.23431263 10.983256 11.8562593 -2.81670309 11.9153119"></polygon>
                    </g>
                    <g id="Group-66" transform="translate(0.000000, 123.597158)">
                        <mask id="mask-44" fill="white">
                            <use xlink:href="#path-43"></use>
                        </mask>
                        <g id="Clip-65"></g>
                        <polygon id="Fill-64" fill="#18186B" mask="url(#mask-44)" points="-2.72641193 -3.01286526 11.0479187 -3.07126175 11.1123185 12.0376821 -2.66201212 12.0967347"></polygon>
                    </g>
                    <g id="Group-69" transform="translate(27.599918, 104.569088)">
                        <mask id="mask-46" fill="white">
                            <use xlink:href="#path-45"></use>
                        </mask>
                        <g id="Clip-68"></g>
                        <polygon id="Fill-67" fill="#18186B" mask="url(#mask-46)" points="-2.95358554 -3.11154877 8.87495086 -3.16207158 8.9334364 10.6168758 -2.8951 10.6673986"></polygon>
                    </g>
                    <g id="Group-72" transform="translate(13.142818, 124.253298)">
                        <mask id="mask-48" fill="white">
                            <use xlink:href="#path-47"></use>
                        </mask>
                        <g id="Clip-71"></g>
                        <polygon id="Fill-70" fill="#18186B" mask="url(#mask-48)" points="-2.86953722 -3.05033088 8.95899918 -3.10085368 9.01748472 10.6780937 -2.81105168 10.7286165"></polygon>
                    </g>
                    <g id="Group-75" transform="translate(55.856977, 122.284877)">
                        <mask id="mask-50" fill="white">
                            <use xlink:href="#path-49"></use>
                        </mask>
                        <g id="Clip-74"></g>
                        <polygon id="Fill-73" fill="#18186B" mask="url(#mask-50)" points="-2.87854005 -3.23201614 8.94999635 -3.28188281 9.00848189 10.4964084 -2.81939736 10.5469312"></polygon>
                    </g>
                    <g id="Group-78" transform="translate(40.742736, 105.225228)">
                        <mask id="mask-52" fill="white">
                            <use xlink:href="#path-51"></use>
                        </mask>
                        <g id="Clip-77"></g>
                        <polygon id="Fill-76" fill="#18186B" mask="url(#mask-52)" points="-2.95102269 -3.16758316 10.8489364 -3.22597965 10.8988792 8.58454667 -2.90107998 8.64294316"></polygon>
                    </g>
                    <g id="Group-81" transform="translate(70.314077, 103.256807)">
                        <mask id="mask-54" fill="white">
                            <use xlink:href="#path-53"></use>
                        </mask>
                        <g id="Clip-80"></g>
                        <polygon id="Fill-79" fill="#18186B" mask="url(#mask-54)" points="-2.95680553 -2.63702807 8.87173087 -2.68755088 8.93613068 12.4036772 -2.89240572 12.4542"></polygon>
                    </g>
                    <g id="Group-84" transform="translate(25.628496, 121.628737)">
                        <mask id="mask-56" fill="white">
                            <use xlink:href="#path-55"></use>
                        </mask>
                        <g id="Clip-83"></g>
                        <polygon id="Fill-82" fill="#18186B" mask="url(#mask-56)" points="-2.8811029 -3.10354386 8.9474335 -3.15341053 9.01183331 11.9371614 -2.81670309 11.9876842"></polygon>
                    </g>
                    <g id="Group-87" transform="translate(0.000000, 105.881368)">
                        <mask id="mask-58" fill="white">
                            <use xlink:href="#path-57"></use>
                        </mask>
                        <g id="Clip-86"></g>
                        <polygon id="Fill-85" fill="#18186B" mask="url(#mask-58)" points="-2.94911698 -3.13490737 10.3993863 -3.19133544 10.453929 9.50891719 -2.89457429 9.56534526"></polygon>
                    </g>
                    <g id="Group-90" transform="translate(302.284819, 272.541018)">
                        <mask id="mask-60" fill="white">
                            <use xlink:href="#path-59"></use>
                        </mask>
                        <g id="Clip-89"></g>
                        <polygon id="Fill-88" fill="#18186B" mask="url(#mask-60)" points="-3.15315923 -3.22046807 11.3032837 -3.28214526 11.3729406 13.1213635 -3.0835023 13.1830407"></polygon>
                    </g>
                    <g id="Group-93" transform="translate(316.741919, 272.541018)">
                        <mask id="mask-62" fill="white">
                            <use xlink:href="#path-61"></use>
                        </mask>
                        <g id="Clip-92"></g>
                        <polygon id="Fill-91" fill="#18186B" mask="url(#mask-62)" points="-3.15059638 -2.62587368 10.6493627 -2.68427018 10.7137626 12.4063018 -3.08619657 12.4653544"></polygon>
                    </g>
                    <g id="Group-96" transform="translate(330.541878, 273.853298)">
                        <mask id="mask-64" fill="white">
                            <use xlink:href="#path-63"></use>
                        </mask>
                        <g id="Clip-95"></g>
                        <polygon id="Fill-94" fill="#18186B" mask="url(#mask-64)" points="-3.14547068 -2.68446702 8.68306571 -2.73498982 8.7422084 11.0439575 -3.086328 11.0944804"></polygon>
                    </g>
                    <g id="Group-99" transform="translate(346.313260, 273.853298)">
                        <mask id="mask-66" fill="white">
                            <use xlink:href="#path-65"></use>
                        </mask>
                        <g id="Clip-98"></g>
                        <polygon id="Fill-97" fill="#18186B" mask="url(#mask-66)" points="-3.14547068 -2.75145895 8.68306571 -2.80198175 8.74155126 10.9769656 -3.086328 11.0274884"></polygon>
                    </g>
                    <g id="Group-102" transform="translate(360.113219, 272.541018)">
                        <mask id="mask-68" fill="white">
                            <use xlink:href="#path-67"></use>
                        </mask>
                        <g id="Clip-101"></g>
                        <polygon id="Fill-100" fill="#18186B" mask="url(#mask-68)" points="-3.15125352 -2.81005228 8.02014196 -2.85795053 8.08454177 12.2332775 -3.08685372 12.2811758"></polygon>
                    </g>
                    <g id="Group-105" transform="translate(371.284615, 276.477860)">
                        <mask id="mask-70" fill="white">
                            <use xlink:href="#path-69"></use>
                        </mask>
                        <g id="Clip-104"></g>
                        <polygon id="Fill-103" fill="#18186B" mask="url(#mask-70)" points="-2.67186923 -2.93340667 10.8632621 -2.99114702 10.9118905 8.56151614 -2.62258366 8.61925649"></polygon>
                    </g>
                    <g id="Group-108" transform="translate(370.627474, 292.881368)">
                        <mask id="mask-72" fill="white">
                            <use xlink:href="#path-71"></use>
                        </mask>
                        <g id="Clip-107"></g>
                        <polygon id="Fill-106" fill="#18186B" mask="url(#mask-72)" points="-3.06464235 -2.85526035 11.3924577 -2.9162814 11.4621146 13.4865712 -2.99498542 13.5482484"></polygon>
                    </g>
                    <g id="Group-111" transform="translate(356.827515, 293.537509)">
                        <mask id="mask-74" fill="white">
                            <use xlink:href="#path-73"></use>
                        </mask>
                        <g id="Clip-110"></g>
                        <polygon id="Fill-109" fill="#18186B" mask="url(#mask-74)" points="-3.06142236 -2.79627333 10.7378796 -2.85532596 10.8029366 12.2359021 -2.99702255 12.2949547"></polygon>
                    </g>
                    <g id="Group-114" transform="translate(345.656119, 292.881368)">
                        <mask id="mask-76" fill="white">
                            <use xlink:href="#path-75"></use>
                        </mask>
                        <g id="Clip-113"></g>
                        <polygon id="Fill-112" fill="#18186B" mask="url(#mask-76)" points="-3.06464235 -2.7489 8.76389405 -2.79942281 8.82303673 10.9795246 -3.00549967 11.0300474"></polygon>
                    </g>
                    <g id="Group-117" transform="translate(329.884737, 293.537509)">
                        <mask id="mask-78" fill="white">
                            <use xlink:href="#path-77"></use>
                        </mask>
                        <g id="Clip-116"></g>
                        <polygon id="Fill-115" fill="#18186B" mask="url(#mask-78)" points="-3.06142236 -2.68190807 8.76711404 -2.73243088 8.82559958 11.0465165 -3.00227968 11.0970393"></polygon>
                    </g>
                    <g id="Group-120" transform="translate(316.741919, 293.537509)">
                        <mask id="mask-80" fill="white">
                            <use xlink:href="#path-79"></use>
                        </mask>
                        <g id="Clip-119"></g>
                        <polygon id="Fill-118" fill="#18186B" mask="url(#mask-80)" points="-3.06142236 -2.62613614 8.10997313 -2.67337825 8.17437293 12.4178498 -2.99702255 12.4650919"></polygon>
                    </g>
                    <g id="Group-123" transform="translate(302.284819, 294.193649)">
                        <mask id="mask-82" fill="white">
                            <use xlink:href="#path-81"></use>
                        </mask>
                        <g id="Clip-122"></g>
                        <polygon id="Fill-121" fill="#18186B" mask="url(#mask-82)" points="-3.06142236 -3.22079614 10.7385368 -3.27919263 10.7858509 7.87519333 -3.01410822 7.93358982"></polygon>
                    </g>
                    <g id="Group-130" transform="translate(45.999864, 0.242772)" stroke="#18186B" stroke-width="2">
                        <path d="M63.7487798,230.612206 C70.3215032,229.007942 70.1204181,243.723202 61.1734446,243.761258 C52.226471,243.799314 51.386645,231.978946 58.7236232,224.590149 C66.0606015,217.202009 70.6415308,227.252111 70.6415308,227.252111 C75.4380023,235.220279 78.8899635,240.72136 82.1868395,254.40123 C85.4830583,268.0811 97.779479,292.754602 98.0324783,307.398342 C98.2854775,322.042739 103.592548,360.439416 105.335942,367.279679 C107.079337,374.11863 107.833078,372.213855 111.453924,372.578669 C115.074113,372.943483 119.263387,372.545206 122.882919,372.530114 C126.501794,372.515023 126.29808,369.28222 126.210023,348.741746 C126.122624,328.200616 121.278181,329.165799 123.368546,307.671297 C125.458254,286.177451 113.541661,281.465707 127.630762,279.884409 C141.719863,278.303111 141.642978,260.234974 154.980967,261.129293 C168.318956,262.023613 193.806823,342.74856 195.74736,351.1091 C197.687897,359.468985 199.949776,353.753346 199.933348,349.9497 C199.917577,346.146055 207.596268,360.187458 207.799982,363.229981 C208.003695,366.272504 236.519668,373.053058 230.631028,364.508142 C224.742389,355.962571 199.901148,294.51962 194.328593,268.443946 C194.328593,268.443946 186.64333,253.030553 193.411882,252.582409 C205.833159,251.760921 199.835434,248.15543 207.822325,249.184258 C215.809215,250.213086 221.670255,247.348378 215.515473,239.27129 C209.361349,231.194202 194.095965,226.068434 198.487638,225.27516 C202.879311,224.482542 222.893194,249.694079 231.167913,250.17503 C239.442631,250.655981 251.541909,238.73063 256.432352,233.547121 C261.322138,228.363613 255.368441,226.582192 250.93274,226.343356 C246.497039,226.103865 242.826907,217.571416 242.826907,217.571416 C242.826907,217.571416 227.223753,197.200883 225.811557,175.780525 C224.400018,154.360167 209.171435,144.535778 218.405579,142.18942 C227.639066,139.842406 229.231975,126.320665 236.465783,119.367546 C243.698933,112.414427 251.583966,103.481076 250.25917,102.497521 C248.935031,101.514623 230.475286,108.185602 220.936886,116.466749 C211.398485,124.748553 201.179944,128.41769 196.22773,128.438686 C191.275516,128.459683 183.673053,126.184844 183.673053,126.184844 C183.673053,126.184844 182.578256,101.796764 168.047557,100.539599 C153.5162,99.2830898 148.931985,108.202662 147.994902,120.732974 C147.057819,133.26263 144.689483,119.757949 121.301838,132.05402 C97.91485,144.349434 82.1336111,159.579764 71.2737004,167.866816 C60.4151039,176.153213 32.7645858,195.059897 29.9500513,231.991413 C27.1361739,268.922272 22.5460447,276.19362 15.6546079,286.111837 C8.76448547,296.030055 10.8213365,313.8213 20.1113376,324.660083 C29.4006815,335.498865 32.7304145,342.076672 52.2041283,341.005195 C71.6771849,339.933718 77.2845683,338.591255 82.2643821,345.163156 C87.2441959,351.734402 98.7231334,356.148914 103.344805,356.128574" id="Stroke-124"></path>
                        <path d="M125.704222,335.152226 C133.312599,335.120075 139.376696,329.839458 139.376696,329.839458 C162.772227,317.277651 164.37105,337.285995 166.651329,339.919742 C168.931608,342.553489 213.600105,351.427132 225.324813,351.378125 C237.049521,351.327398 233.631074,347.943682 242.706847,347.527033 C251.781963,347.11104 239.244371,333.946896 228.64206,330.970644 C218.039091,327.994391 191.516884,317.154953 178.215038,302.105718 C164.913192,287.056482 150.567148,259.497275 153.573568,267.725275 C156.579988,275.953275 154.647993,273.594451 147.454272,303.659458 C144.366367,316.561802 130.528293,329.576346 123.919427,328.286374" id="Stroke-126"></path>
                        <path d="M25.0255687,266.767835 C25.0255687,266.767835 19.402414,284.262506 25.1681683,300.274955 C25.1681683,300.274955 42.300489,331.010537 11.6948082,329.926593 L1.1621537,329.971211 L0.113356807,84.0642425 L140.23157,0.605158246 L289.549757,77.9765723 L290.618925,328.775723 L250.735072,328.945664" id="Stroke-128"></path>
                    </g>
                </g>
            </g>
        </g>
    </g>
</svg>