<?xml version="1.0" encoding="UTF-8"?>
<svg width="86px" height="85px" viewBox="0 0 86 85" version="1.1" xmlns="http://www.w3.org/2000/svg" xmlns:xlink="http://www.w3.org/1999/xlink">
    <!-- Generator: Sketch 63.1 (92452) - https://sketch.com -->
    <title>Shape</title>
    <desc>Created with Sketch.</desc>
    <g id="ac-design" stroke="none" stroke-width="1" fill="none" fill-rule="evenodd">
        <g id="ac-adopt" transform="translate(-102.000000, -3843.000000)" fill="#F0ECD9" fill-rule="nonzero">
            <path d="M187.090271,3843.85298 C185.921201,3842.71567 184.050197,3842.71567 182.881127,3843.85298 L164.441066,3862.05499 C158.480575,3858.05053 150.496465,3858.80124 145.399699,3863.84535 L115.234164,3893.78417 L113.931334,3892.39167 C112.769011,3891.21061 110.862078,3891.18835 109.672081,3892.34194 C108.482083,3893.49552 108.459649,3895.38812 109.621972,3896.56918 L111.02502,3897.96168 L115.234164,3902.13919 L119.643744,3906.51563 L114.231987,3911.88672 L107.116529,3904.82473 C105.926531,3903.67115 104.019599,3903.69341 102.857276,3904.87447 C101.694952,3906.05552 101.717387,3907.94812 102.907384,3909.10171 L110.022843,3916.16369 L114.231987,3920.3412 L121.347445,3927.40318 C122.544407,3928.29416 124.219329,3928.17602 125.277303,3927.12599 C126.335278,3926.07597 126.454311,3924.41364 125.55659,3923.22567 L118.441131,3916.16369 L123.953106,3910.79261 L128.362686,3915.16904 L132.57183,3919.34655 L133.974878,3920.73906 C135.164876,3921.89265 137.071808,3921.87038 138.234131,3920.68933 C139.396455,3919.50827 139.37402,3917.61567 138.184023,3916.46208 L136.780975,3915.06958 L166.946509,3885.23022 C172.028817,3880.17176 172.785207,3872.24766 168.750428,3866.33196 L187.090271,3848.12995 C187.671899,3847.5682 188,3846.79694 188,3845.99147 C188,3845.18599 187.671899,3844.41473 187.090271,3843.85298 Z M162.637147,3880.95325 L132.57183,3910.89207 L128.16225,3906.51563 L123.953106,3902.33812 L119.543526,3897.96168 L124.855066,3892.69006 L134.576185,3902.33812 L138.785329,3898.16061 L129.06421,3888.51255 L132.170959,3885.42915 L139.687288,3892.88899 L143.996651,3888.71148 L136.480321,3881.25164 L139.587071,3878.16824 L149.30819,3887.8163 L153.517334,3883.63879 L143.796215,3873.99073 L146.902964,3870.90733 L154.419294,3878.36717 L158.628438,3874.18966 L151.312544,3866.72982 C154.873717,3864.54687 159.480133,3865.08231 162.436711,3868.02286 L162.737365,3868.32125 C166.241121,3871.81395 166.241121,3877.46055 162.737365,3880.95325 L162.637147,3880.95325 Z" id="Shape"></path>
        </g>
    </g>
</svg>