<?xml version="1.0" encoding="UTF-8"?>
<svg width="1200px" height="380px" viewBox="0 0 1200 380" version="1.1" xmlns="http://www.w3.org/2000/svg" xmlns:xlink="http://www.w3.org/1999/xlink">
    <!-- Generator: Sketch 63.1 (92452) - https://sketch.com -->
    <title>Group 9</title>
    <desc>Created with Sketch.</desc>
    <g id="mp-design" stroke="none" stroke-width="1" fill="none" fill-rule="evenodd">
        <g id="mp-care" transform="translate(0.000000, -1131.000000)">
            <g id="Group-9" transform="translate(0.000000, 1130.000000)">
                <path d="M0,337.604054 C509,347.594194 607,165.773658 736,104.833808 C865,43.8939577 1003,-5.05772503 1200,49.8880413" id="Path-3" stroke="#171767" stroke-width="3"></path>
                <path d="M157.994139,330.087366 C157.994139,311.843196 117,302.726976 117,325.523391 C117,348.319805 157.994139,362 157.994139,362 C157.994139,362 199,348.319805 199,325.523391 C199,302.726976 157.994139,311.843196 157.994139,330.087366" id="Fill-1-Copy-3" fill="#DBAD2C" transform="translate(158.000000, 337.000000) rotate(108.000000) translate(-158.000000, -337.000000) "></path>
                <path d="M1087.99671,22.1289252 C1087.99671,11.9121895 1065,6.80710673 1065,19.5730987 C1065,32.3390907 1087.99671,40 1087.99671,40 C1087.99671,40 1111,32.3390907 1111,19.5730987 C1111,6.80710673 1087.99671,11.9121895 1087.99671,22.1289252" id="Fill-1-Copy-2" fill="#3F9CC5" transform="translate(1088.000000, 26.000000) rotate(75.000000) translate(-1088.000000, -26.000000) "></path>
            </g>
        </g>
    </g>
</svg>