<?xml version="1.0" encoding="UTF-8"?>
<svg width="288px" height="210px" viewBox="0 0 288 210" version="1.1" xmlns="http://www.w3.org/2000/svg" xmlns:xlink="http://www.w3.org/1999/xlink">
    <!-- Generator: Sketch 63.1 (92452) - https://sketch.com -->
    <title>pig-illustration2-11</title>
    <desc>Created with Sketch.</desc>
    <g id="mp-design" stroke="none" stroke-width="1" fill="none" fill-rule="evenodd">
        <g id="mp-home-mb" transform="translate(-37.000000, -2799.000000)">
            <g id="pig-illustration2-11" transform="translate(181.000000, 2904.000000) scale(-1, 1) translate(-181.000000, -2904.000000) translate(37.000000, 2799.000000)">
                <path d="M266.527757,97.4873236 C271.408416,97.7325691 275.119224,98.874185 277.950074,100.495984 C282.193566,102.929112 284.481884,106.451456 285.724957,109.757761 C286.965461,113.061919 287.144022,116.142735 287.143594,117.615497 C287.143594,117.908417 287.136743,118.137342 287.129891,118.292392 C287.126466,118.369702 287.123468,118.428544 287.120899,118.467199 L287.117902,118.510149 L287.116617,118.522175 L287.115761,118.537208 L287.115761,118.557394 L287.467744,118.557394 L287.116189,118.534631 L287.115761,118.557394 L287.467744,118.557394 L287.116189,118.534631 L287.115332,118.567273 C287.117473,119.921922 286.675568,122.101214 285.620047,124.148649 C284.564099,126.202097 282.911235,128.1224 280.503449,129.086631 C275.95422,130.909008 273.299361,133.636344 271.79594,135.910556 C270.291234,138.185627 269.928546,140.003709 269.92041,140.042793 L269.918269,140.05396 L269.9157,140.074147 L269.910562,140.111514 C269.802226,140.931862 267.79952,155.102845 255.680517,178.654577 C250.737769,188.255661 244.289459,193.517058 238.307034,196.399016 C232.324609,199.279684 226.799505,199.770175 223.740851,199.770175 C222.951672,199.770175 222.327352,199.737533 221.902147,199.705321 C221.689758,199.688999 221.527041,199.673108 221.418277,199.661082 C221.364324,199.655069 221.323644,199.650344 221.297096,199.646908 L221.259842,199.642184 L221.231153,199.637889 L221.203319,199.637889 C221.202891,199.637889 174.199469,199.288704 135.782375,199.288704 C116.572329,199.288704 99.5135751,199.375893 91.5357239,199.638318 C89.6126639,199.701455 87.8219187,199.73152 86.1485011,199.73152 C76.6132753,199.730661 70.8933387,198.75784 66.016534,197.383434 C61.1405857,196.010316 57.0773669,194.214999 50.9236606,192.580315 C49.3277478,192.156397 47.8804215,191.350651 46.5542766,190.223209 C44.2338442,188.252225 42.2936561,185.288662 40.665628,181.744413 C38.2214449,176.428899 36.4769456,169.818866 35.0925651,163.348851 C33.7073282,156.877117 32.6796409,150.54669 31.6480997,145.759033 C30.8499292,142.052862 29.2437395,139.206124 27.2958437,136.910007 C24.3742142,133.465402 20.6998037,131.242301 17.8060074,129.08749 C16.3582529,128.012018 15.1083281,126.955014 14.2360785,125.800084 C13.3634006,124.642147 12.8589774,123.404752 12.8564082,121.883886 C12.8564082,119.846759 13.1818425,118.257173 13.7676243,117.019348 C14.2078171,116.090336 14.7931707,115.355029 15.5185467,114.761028 C16.6048978,113.8711 18.020109,113.298145 19.72607,112.951537 C21.4307464,112.60407 23.4193214,112.485098 25.6215698,112.485098 C25.9183145,112.485098 26.218913,112.487245 26.5233654,112.49154 C32.274989,112.565414 42.2242872,114.052779 50.7082745,115.522534 C54.9521951,116.257412 58.8338558,116.987995 61.6544294,117.534321 C63.0649303,117.807484 64.2099453,118.034691 65.002121,118.193606 C65.7938684,118.352522 66.231492,118.443147 66.2327766,118.443147 L66.2439099,118.445724 L66.2576124,118.447442 C66.2738841,118.450019 85.6766213,121.265833 116.78643,121.265833 C131.633943,121.265833 149.148305,120.624587 168.495376,118.729195 C193.15088,116.313247 217.442412,114.35386 235.580237,112.320598 C244.650435,111.303538 252.179529,110.269298 257.463555,109.145291 C260.106852,108.582215 262.186635,107.99981 263.639099,107.37059 C264.366188,107.054047 264.938268,106.728485 265.355337,106.361261 C265.563444,106.177004 265.733441,105.980293 265.856335,105.762106 C265.978373,105.544348 266.050311,105.300391 266.049455,105.05128 C266.049455,104.621349 265.845202,104.223201 265.52148,103.873586 C265.031188,103.345728 264.251858,102.862968 263.139815,102.358733 C262.0282,101.856646 260.582586,101.343391 258.771287,100.80952 L258.529781,101.634164 C260.911446,102.334681 262.63325,102.99912 263.726881,103.609443 C264.273696,103.9131 264.66122,104.203873 264.89245,104.45642 C265.126249,104.712403 265.193477,104.904391 265.193477,105.05128 C265.19262,105.140187 265.17121,105.229953 265.109121,105.341623 C264.992649,105.556374 264.702328,105.834691 264.228735,106.115156 C263.342783,106.645591 261.852636,107.185475 259.864061,107.701306 C256.381058,108.607985 251.362946,109.460975 245.195109,110.285619 C226.68646,112.761697 197.811442,114.993818 168.411876,117.874057 C149.096493,119.766442 131.609536,120.406829 116.78643,120.406829 C101.257218,120.406829 88.6517762,119.704164 79.9305644,119.001499 C75.5697444,118.650167 72.1805171,118.298834 69.8819231,118.03555 C68.7330543,117.903693 67.8565226,117.79417 67.2677434,117.717289 C66.9735679,117.679063 66.7513305,117.648998 66.602744,117.628811 C66.4541576,117.608195 66.3805066,117.597458 66.3805066,117.597458 L66.3192736,118.022665 L66.4053424,117.601753 C66.4027732,117.601323 59.3562636,116.148748 50.8538635,114.676416 C42.3476097,113.204084 32.4017371,111.711135 26.5349269,111.632537 C26.2266207,111.628241 25.9221683,111.626094 25.6215698,111.626523 C23.6368486,111.626523 21.8049958,111.720155 20.1628371,111.996754 C18.9313251,112.204633 17.805151,112.515163 16.8035841,112.972582 C15.3018759,113.656349 14.078928,114.682858 13.2546371,116.14746 C12.4286333,117.611631 12,119.49199 12,121.883886 C12,123.029797 12.2624906,124.059742 12.7240935,124.990473 C13.5342537,126.621291 14.9280546,127.945016 16.5740672,129.229226 C19.0465117,131.152535 22.1115892,132.997675 24.7994199,135.531736 C27.4881069,138.067085 29.8012599,141.267303 30.8109627,145.940712 C32.3734757,153.18469 33.9411271,164.102197 36.7925313,173.671068 C38.2197321,178.457007 39.9668006,182.909652 42.2161513,186.413957 C43.341469,188.166325 44.5935347,189.682037 46.00061,190.878199 C47.4068289,192.074362 48.9710547,192.950545 50.7039925,193.410542 C56.7934682,195.026757 60.8348488,196.813914 65.7848762,198.210654 C70.7327626,199.606535 76.5593217,200.591383 86.1485011,200.590524 C87.8321956,200.590524 89.631933,200.560029 91.5639853,200.496463 C99.5144316,200.234896 116.577039,200.147707 135.782375,200.147707 C154.988139,200.147707 176.342197,200.234896 192.894387,200.322085 C201.170695,200.365894 208.246323,200.409704 213.252873,200.442346 C215.756148,200.458667 217.742154,200.472411 219.102555,200.48186 C220.462528,200.491309 221.194755,200.496892 221.196896,200.496892 L221.200322,200.067391 L221.140802,200.492597 C221.157073,200.495174 222.115392,200.629179 223.740851,200.629179 C226.889,200.629179 232.542137,200.126662 238.67743,197.173407 C244.812724,194.2223 251.421181,188.809718 256.441434,179.04886 C268.999774,154.643278 270.760116,140.224902 270.765683,140.178086 L270.340906,140.126117 L270.760973,140.20944 L270.760973,140.208152 C270.774675,140.139861 271.142074,138.414552 272.576982,136.284223 C274.013603,134.153894 276.509171,131.61425 280.821176,129.884216 C283.474322,128.819911 285.26207,126.720935 286.381392,124.542502 C287.501143,122.358056 287.969169,120.092434 287.97131,118.567273 L287.620184,118.567273 L287.970882,118.590036 L287.97131,118.567273 L287.620184,118.567273 L287.970882,118.590036 L287.971739,118.557394 L287.543964,118.557394 L287.970454,118.593043 C287.97131,118.582735 288,118.227966 288,117.615497 C288,115.562478 287.679276,110.597437 284.827872,105.975139 C283.401955,103.665707 281.33716,101.446901 278.374852,99.7499392 C275.413399,98.052548 271.560856,96.879149 266.570578,96.629179 L266.527757,97.4873236" id="Fill-1" fill="#242350"></path>
                <path d="M240.478964,83.9572393 C240.935692,83.9555189 241.30895,83.8806846 241.609439,83.684567 C241.757972,83.5865081 241.88339,83.4531826 241.965575,83.2962024 C242.048189,83.1396524 242.085001,82.965469 242.084573,82.7973067 C242.07644,82.3100232 241.827316,81.8640276 241.451918,81.4141613 C240.881758,80.7449529 239.974296,80.0748843 238.820706,79.5574951 C237.667972,79.0426863 236.268683,78.6865779 234.730706,78.6865779 C232.312662,78.6835674 229.554748,79.5785691 226.955212,82.0769185 C226.229671,82.772792 225.693326,83.4471614 225.333766,84.101747 C224.974205,84.7559025 224.790573,85.3945751 224.790573,86.0035719 C224.789289,86.6314924 224.990899,87.2185551 225.35474,87.7144402 C225.90093,88.4602033 226.783137,89.0089886 227.901627,89.3814401 C229.022256,89.7530314 230.38987,89.9478588 231.946253,89.9478588 C237.694511,89.9448482 246.052151,87.2822073 253.616189,80.4288422 C254.545482,79.5858805 255.22779,78.7055016 255.677241,77.7984575 C256.127547,76.8918436 256.342428,75.9585645 256.342,75.0300163 C256.340715,73.1557167 255.479483,71.3291562 254.048946,69.655275 C251.898432,67.143163 248.446652,64.9329689 244.408874,63.3330619 C240.371096,61.7357354 235.74518,60.7551473 231.243398,60.7542871 C226.105537,60.7547172 221.114068,62.0342127 217.388765,65.188868 C215.527183,66.7651205 213.990491,68.8097328 212.924651,71.3730246 C211.858811,73.9363165 211.26254,77.0152773 211.26254,80.6679681 C211.26254,81.3556701 211.283514,82.064016 211.327175,82.793436 C211.594277,87.3114529 212.527422,91.0660733 213.986638,94.1553561 C216.173964,98.7912156 219.552548,101.917485 223.567639,103.861889 C227.583159,105.808442 232.228765,106.586461 236.999361,106.586891 C244.273183,106.586031 251.847066,104.777534 257.974147,102.46025 C261.037259,101.300747 263.738243,100.01437 265.86179,98.7550887 C267.986193,97.4910761 269.531018,96.2756629 270.310066,95.1664801 C271.534283,93.4083027 272,91.3021886 272,89.1182296 C271.996575,85.2259827 270.537787,81.0412798 269.090985,77.8109299 C267.642042,74.5823004 266.197379,72.3136151 266.190103,72.3015728 L265.829686,72.5333873 L266.224346,72.3673754 C262.30899,62.9670617 254.973958,55.7046882 246.719906,50.0800689 C238.463714,44.4550196 229.278229,40.4608432 221.614884,37.608966 C213.945546,34.7553684 202.196053,31.193425 190.069878,28.3213339 C177.94199,25.450533 165.448978,23.2687244 156.266062,23.1891591 C156.005809,23.1870087 155.74898,23.1857184 155.496003,23.1861485 C149.920677,23.1857184 146.10634,23.7142899 142.993146,24.2407109 C139.87824,24.767992 137.481598,25.2840911 134.699285,25.2832309 C131.503906,25.2828008 127.755061,24.6075713 121.774373,22.438235 C112.954869,19.2371308 106.779419,18.5967379 102.290906,18.5975981 C99.3562085,18.5980281 97.1431997,18.8685501 95.4245865,18.8672598 C94.7739534,18.8672598 94.1952323,18.8289825 93.6755819,18.7296334 C93.3151654,18.665121 92.8383198,18.3683641 92.3190974,17.8492545 C91.4064988,16.9456511 90.3740468,15.4158476 89.2919411,13.6434775 C87.6649302,10.9825569 85.910361,7.77414126 84.0907284,5.20912908 C83.179414,3.92619292 82.2522618,2.80238728 81.2955742,1.98178982 C80.8165884,1.57149109 80.3290416,1.23645681 79.8269411,1.00077159 C79.3248407,0.765086362 78.8047622,0.629178968 78.2756948,0.629178968 C77.815543,0.629178968 77.3515389,0.733690338 76.9042286,0.949591765 C75.5507405,1.60159687 74.4917494,2.77142134 73.6553434,4.19542458 C72.4020185,6.33379489 71.6319599,9.06696933 71.1632472,11.6827312 C70.6962467,14.2984932 70.5365848,16.793832 70.5361568,18.4522302 C70.5370128,19.259065 70.5708286,19.8560195 70.6388883,20.2246003 C70.7236418,20.6697357 70.7681588,20.9428381 70.7655905,21.0374562 L70.7638783,21.0667018 L70.8687501,21.0843352 L70.7715832,21.0426172 L70.7638783,21.0667018 L70.8687501,21.0843352 L70.7715832,21.0426172 L70.9303891,21.1110003 L70.8238051,20.9733739 L70.7715832,21.0426172 L70.9303891,21.1110003 L70.8238051,20.9733739 L70.8627575,21.0236936 L70.8276575,20.9703634 L70.8238051,20.9733739 L70.8627575,21.0236936 L70.8276575,20.9703634 L70.7745796,20.9953081 C70.645309,21.0503587 70.3371144,21.1428264 69.9287565,21.3638889 C69.5169742,21.5862415 68.9913311,21.9410596 68.332137,22.5436052 C67.6228613,23.1956103 67.0946499,24.1641562 66.6640335,25.2509747 C66.0219613,26.8809875 65.6153156,28.7892636 65.3636233,30.2984232 C65.1127871,31.8062925 65.0194726,32.9124648 65.0186165,32.9206364 L65.4453805,32.9571934 L65.3918745,32.5301214 C64.9214496,32.5911932 64.373976,32.8221475 63.7015125,33.2840561 C61.6935387,34.6732227 58.5234144,38.187857 53.7481096,46.2876012 C50.6494692,51.5518113 45.6819708,54.3813242 41.4644127,55.8926342 C39.357988,56.6478592 37.4433287,57.0719205 36.0590211,57.3063155 C35.3664393,57.423728 34.8065523,57.4934014 34.4217371,57.5338292 C34.2291154,57.554043 34.0801547,57.5669455 33.9808475,57.574687 C33.9307659,57.5785577 33.8926696,57.5815683 33.8682708,57.5828586 L33.8331709,57.585009 L33.8558574,58.0146614 L33.9264854,57.5906 C33.9059391,57.5871594 33.8417319,57.5776976 33.7419966,57.5776976 C33.5399579,57.5772675 33.1876743,57.6168351 32.7806006,57.8245649 C32.1659235,58.1350845 31.4570758,58.8193458 30.9220156,60.1861481 C30.3843872,61.5555308 30,63.6143359 30,66.76254 C30,71.4285053 30.1074401,75.0377578 30.9798021,77.9390945 C31.4164112,79.3880425 32.0507785,80.6597966 32.9603808,81.7702696 C33.869555,82.8807427 35.0496836,83.825634 36.5589813,84.6419307 C38.086685,85.467259 40.0004882,86.0577623 42.0756654,86.592785 C45.1871472,87.3927385 48.6646101,88.0628071 51.6870579,89.1113482 C53.1980677,89.6347587 54.5930766,90.2523572 55.7697808,91.0170439 C56.9473412,91.7825908 57.9036007,92.6909251 58.5623668,93.8018283 C61.0724409,98.0355606 65.3199624,101.534712 71.0613718,104.454542 C76.8044934,107.373942 84.05092,109.719182 92.6041775,111.629179 L92.7899503,110.789658 C84.282066,108.890413 77.0968503,106.559796 71.4478992,103.686845 C65.797236,100.813894 61.6918265,97.4041995 59.2977534,93.3618538 C58.3085342,91.6935637 56.7508671,90.4760001 54.9136846,89.5332592 C52.1544864,88.120008 48.7416588,87.3024211 45.4743675,86.5308531 C42.2092165,85.7631558 39.0853213,85.0354562 36.9647709,83.8845553 C35.53295,83.1099767 34.4512724,82.2364791 33.6212871,81.2236348 C32.3790914,79.7054434 31.6873657,77.8552284 31.3038346,75.487194 C30.9211595,73.1217402 30.8556682,70.2517995 30.8560962,66.76254 C30.853956,62.6569722 31.5362647,60.545267 32.2198575,59.508338 C32.561868,58.9879382 32.8978858,58.7298887 33.167128,58.5918322 C33.4367983,58.4550659 33.64697,58.4382927 33.7419966,58.4378626 L33.7882258,58.4395829 L33.7937905,58.440013 L33.8233258,58.2073384 L33.7852295,58.4387228 L33.7937905,58.440013 L33.8233258,58.2073384 L33.7852295,58.4387228 L33.8314587,58.4464643 L33.878544,58.4438838 C33.905083,58.4421634 37.4206422,58.2546475 41.7524891,56.7029097 C46.0804836,55.151602 51.243172,52.227471 54.4847804,46.7258553 C57.6450596,41.3601457 60.0952071,38.0403387 61.9191201,36.0563681 C62.8304345,35.0641677 63.5855114,34.4061414 64.1856349,33.9932622 C64.7844742,33.5790927 65.2300723,33.4156614 65.4984585,33.3838352 L65.8421811,33.3403969 L65.8717164,32.9933203 C65.8717164,32.9933203 65.8738567,32.965795 65.8794213,32.9094542 C65.9188017,32.4884034 66.1195563,30.5396995 66.5993982,28.4460578 C66.8386771,27.399667 67.1481559,26.3171493 67.5363955,25.3782791 C67.9220669,24.4385488 68.3933479,23.6467669 68.9078617,23.1801274 C69.8577005,22.3152314 70.4347093,22.0511607 70.79641,21.9070831 C70.9817548,21.8305284 71.1191583,21.802573 71.3057873,21.6838703 C71.3973896,21.6245189 71.498837,21.5191487 71.5531991,21.3939946 C71.6088453,21.2688406 71.6212587,21.1484175 71.6212587,21.0374562 C71.6186904,20.7845677 71.5626161,20.5179165 71.4804309,20.0654697 C71.4312054,19.8125812 71.3913969,19.2255186 71.392253,18.4522302 C71.3913969,16.3121395 71.6726245,12.6568682 72.566817,9.27469919 C73.0128432,7.5836147 73.6121105,5.96091334 74.3928703,4.63238842 C75.1736301,3.30128301 76.1294615,2.27467602 77.2744902,1.72546064 C77.6143604,1.56202928 77.9422453,1.48977542 78.2756948,1.48934533 C78.856128,1.48891525 79.4720893,1.71685899 80.1240065,2.16113424 C81.2638987,2.93528278 82.4667139,4.3597161 83.6472706,6.07058438 C85.4228142,8.63774697 87.16497,11.8388512 88.7966895,14.4739668 C89.6134053,15.7925998 90.4022979,16.9701658 91.1702163,17.8681781 C91.5550315,18.3176143 91.9347102,18.6973772 92.3195255,18.9911236 C92.7043407,19.2831496 93.0972889,19.49346 93.5154919,19.5743155 C94.1104788,19.6882873 94.7414217,19.7269948 95.4245865,19.7274249 C97.2283813,19.7261346 99.4067181,19.457333 102.290906,19.4577631 C106.695093,19.4586233 112.74641,20.0779421 121.483728,23.2472202 C127.512786,25.43505 131.37592,26.143826 134.699285,26.143396 C137.592891,26.1429659 140.045606,25.6100936 143.135258,25.0888336 C146.227049,24.5667134 149.972898,24.0463136 155.496003,24.0458835 C155.746839,24.0458835 156.0011,24.0471737 156.258785,24.0493241 C165.319708,24.1250187 177.783185,26.294785 189.873404,29.1587045 C201.964907,32.0217639 213.695138,35.5789765 221.31739,38.4153707 C228.945208,41.2534853 238.071622,45.2261576 246.239208,50.7918555 C254.408934,56.3584136 261.609988,63.5111161 265.434598,72.6993991 L265.448295,72.7329456 L265.468842,72.7652017 C265.468842,72.7652017 265.489388,72.7974579 265.53048,72.8636906 C265.838675,73.360866 267.248666,75.6923434 268.576899,78.7695839 C269.906416,81.8455341 271.146472,85.6719783 271.143903,89.1182296 C271.143475,91.184346 270.704298,93.1003637 269.608923,94.6731754 C268.976268,95.5896813 267.495649,96.791762 265.426465,98.0144866 C262.320976,99.85653 257.886825,101.790181 252.8945,103.256762 C247.901747,104.724634 242.348679,105.727156 236.999361,105.727156 C230.75842,105.727587 224.810263,104.363365 220.311905,100.833247 C218.061228,99.0677587 216.165403,96.7603659 214.760121,93.7867754 C213.355695,90.8131848 212.443525,87.1708159 212.181987,82.7422561 C212.138755,82.0291793 212.118636,81.3380367 212.118636,80.6679681 C212.118636,77.1086052 212.69907,74.1466268 213.714828,71.7046182 C215.239963,68.0428956 217.737196,65.5389552 220.799024,63.927436 C223.860424,62.3176371 227.493269,61.6140221 231.243398,61.6144521 C237.080262,61.6127318 243.192789,63.3218798 247.811857,65.8787204 C250.121604,67.1556354 252.05681,68.644151 253.399169,70.2156725 C254.744524,71.7893445 255.487187,73.4305394 255.485903,75.0300163 C255.485475,75.8265292 255.304839,76.6196013 254.911035,77.4148239 C254.51723,78.2096164 253.906834,79.0065593 253.042605,79.7901697 C245.638228,86.5076286 237.441963,89.0911344 231.946253,89.0876937 C229.966959,89.089414 228.342944,88.7500789 227.25827,88.1849505 C226.715505,87.9032464 226.309288,87.5690723 226.044754,87.2056526 C225.780648,86.8409426 225.647953,86.4512878 225.646669,86.0035719 C225.646669,85.5704788 225.777224,85.0745937 226.08285,84.5176368 C226.388476,83.9615401 226.868318,83.3491026 227.546347,82.6992479 C230.006767,80.3428257 232.520266,79.5493235 234.730706,79.546743 C236.604273,79.5458828 238.265099,80.1290747 239.441804,80.8537638 C240.029942,81.214603 240.495658,81.6119993 240.800428,81.9724084 C241.110763,82.3302371 241.23661,82.6575299 241.228477,82.7973067 C241.228049,82.8467662 241.219488,82.8730012 241.208786,82.8940753 C241.192093,82.923751 241.162557,82.9646088 241.048696,83.0127781 C240.936548,83.059227 240.746066,83.0975043 240.478964,83.0970742 L240.478964,83.9572393" id="Fill-2" fill="#242350"></path>
                <path d="M65.6921101,99.5541701 C65.6126481,99.4980393 65.5712083,99.4897719 65.5353222,99.4771534 C65.4746577,99.4606187 65.4332178,99.4553972 65.3849425,99.4493055 C65.2456704,99.4340762 65.0611135,99.429725 64.805639,99.4292898 C63.5919211,99.4292898 60.8509096,99.5646131 57.3973034,99.822641 C52.2198847,100.210336 45.4626249,100.874768 39.9827379,101.782435 C37.2417264,102.236703 34.8224078,102.750148 33.0610003,103.329732 C32.1788013,103.62083 31.4619345,103.924981 30.9326151,104.269163 C30.668169,104.442777 30.4481533,104.626834 30.280685,104.843525 C30.1140711,105.057606 30,105.32129 30,105.607166 C30,105.90479 30.1238971,106.185444 30.3148622,106.419541 C30.6532165,106.830732 31.1936435,107.171433 31.9852729,107.526493 C33.1729306,108.053427 34.9386103,108.585583 37.4203023,109.13993 C39.9015671,109.692971 43.0958537,110.264722 47.121928,110.855619 C93.2748201,117.626133 107.158454,117.628744 107.191776,117.629179 L107.243897,117.629179 L107.295162,117.616125 C107.313105,117.610904 110.180573,116.885989 113.078372,115.363494 C114.527485,114.601158 115.986852,113.640407 117.104019,112.446429 C118.21905,111.255933 119,109.804797 119,108.11391 C119,106.586628 118.362595,104.916191 116.893402,103.121744 C115.422501,101.324686 113.116821,99.3844722 109.712772,97.2710798 C104.352505,93.9471754 100.364453,92.6331039 97.4863057,92.629179 C95.6172401,92.6265771 94.2001679,93.2009394 93.2684119,94.1725691 C92.3349471,95.1428933 91.9141403,96.4717589 91.915422,97.8880842 C91.9175581,99.826122 92.6848362,101.958225 94.0566236,103.791398 C95.4292654,105.622395 97.4183785,107.155334 99.8846908,107.838042 C101.121051,108.179613 102.142949,108.335822 102.988408,108.335822 C104.016287,108.335822 104.799372,108.103902 105.34279,107.644412 C105.612362,107.415972 105.813581,107.131837 105.940891,106.819419 C106.068628,106.506565 106.12502,106.168475 106.124593,105.821682 C106.122884,105.085018 105.879372,104.303538 105.480353,103.529889 C104.879262,102.370721 103.918882,101.226783 102.777364,100.354361 C101.636272,99.4854207 100.308061,98.8810349 98.9563526,98.8784241 C98.7145489,98.8784241 98.472318,98.8984398 98.2322231,98.9402116 L98.3766218,99.7982741 C98.5663053,99.7647697 98.7602609,99.7486701 98.9563526,99.7486701 C99.6851814,99.748235 100.450323,99.9723233 101.188978,100.360018 C102.29632,100.939602 103.335306,101.885994 104.081651,102.905923 C104.831841,103.922805 105.276144,105.019315 105.27059,105.821682 C105.270163,106.073618 105.230005,106.295095 105.152252,106.484374 C105.033913,106.767639 104.841239,106.992162 104.502031,107.171433 C104.163249,107.348093 103.667253,107.466011 102.988408,107.465576 C102.24719,107.466011 101.292791,107.325902 100.108551,106.998254 C97.8455936,106.372547 96.0081418,104.960138 94.7358955,103.263158 C93.4627947,101.567919 92.7677159,99.5894151 92.769852,97.8880842 C92.7707064,96.6397164 93.1338392,95.5566953 93.8789022,94.7813061 C94.6243924,94.0076574 95.7795818,93.5020445 97.4863057,93.4994338 C100.105134,93.4950826 103.986382,94.7325723 109.268469,98.0138348 C112.620398,100.093723 114.855586,101.988683 116.2372,103.678701 C117.620095,105.371764 118.145569,106.840305 118.145996,108.11391 C118.145569,109.520662 117.50432,110.753366 116.485412,111.846394 C114.961109,113.482022 112.602882,114.732565 110.631284,115.551467 C109.645272,115.962658 108.756238,116.268549 108.115415,116.471317 C107.795004,116.5727 107.536539,116.647977 107.359245,116.698016 C107.270384,116.723253 107.20203,116.741528 107.156318,116.753712 C107.110178,116.76633 107.088818,116.771552 107.088818,116.771552 L107.191776,117.194056 L107.191776,116.758933 C107.191776,116.758933 107.141792,116.758933 107.030716,116.757193 C105.367141,116.732826 90.4889511,116.338604 47.2436843,109.994076 C41.1306647,109.097723 36.9542107,108.244446 34.3332466,107.450347 C33.0242598,107.05482 32.1031842,106.670607 31.5431054,106.325554 C31.2632795,106.154551 31.0761593,105.99312 30.9744822,105.866064 C30.8710961,105.735962 30.854862,105.659381 30.8540075,105.607166 C30.8544348,105.571921 30.8616974,105.534065 30.890748,105.476629 C30.9445771,105.366108 31.1005106,105.19554 31.3679472,105.019315 C31.8673615,104.683835 32.7239276,104.33008 33.8231519,104.000692 C35.7494644,103.420238 38.4255392,102.894174 41.4028006,102.43686 C45.8706152,101.749801 51.0219738,101.215035 55.4069087,100.852577 C59.7888531,100.489685 63.4176174,100.299101 64.805639,100.299536 C64.9889142,100.299536 65.1324585,100.303017 65.2238825,100.308673 C65.26874,100.311719 65.3020628,100.315635 65.3118888,100.316941 L65.3131704,100.317376 L65.3588824,100.093288 L65.2866831,100.309544 L65.3131704,100.317376 L65.3588824,100.093288 L65.2866831,100.309544 L65.4071577,99.9510023 L65.1884236,100.256894 C65.2413983,100.294749 65.26874,100.302582 65.2866831,100.309544 L65.4071577,99.9510023 L65.1884236,100.256894 L65.6925373,99.5541701" id="Fill-3" fill="#242350"></path>
                <path d="M39.4310392,17.629179 C39.4310392,17.629179 33.76677,29.7712759 39.7304154,30.5820218 C44.0857427,31.1742778 44.1927575,26.1502837 39.4310392,17.629179" id="Fill-4" fill="#7387B6"></path>
                <path d="M51.9952038,23.629179 C51.9952038,23.629179 46.4943062,32.167194 50.4021507,36.4465616 C54.3099952,40.7255063 55.3253148,32.6881605 51.9952038,23.629179" id="Fill-5" fill="#7387B6"></path>
                <path d="M168.646262,105.629179 C168.646262,105.629179 160.150024,121.506863 169.096121,122.567504 C175.628871,123.342057 175.788798,116.771951 168.646262,105.629179" id="Fill-6" fill="#7387B6"></path>
                <path d="M185.376004,87.629179 C185.376004,87.629179 176.991201,101.349282 183.434551,104.575802 C184.772042,105.245892 189.43356,99.607309 185.376004,87.629179" id="Fill-7" fill="#7387B6"></path>
                <path d="M185.193461,113.629179 C185.193461,113.629179 177.492141,124.606715 182.962817,130.108381 C188.43396,135.610468 189.855412,125.276928 185.193461,113.629179" id="Fill-8" fill="#7387B6"></path>
                <path d="M245.451531,134.650948 C245.451531,134.650948 240.944472,134.218691 239.683768,137.206513 C238.423576,140.194336 238.730164,143.831611 242.090847,143.620389 C245.451531,143.408741 251.433085,134.958606 245.451531,134.650948" id="Fill-9" fill="#242350"></path>
                <path d="M269,136.313655 C269,136.313655 269,135.14196 269,139.814205 C269,144.486952 272.136891,143.965252 273.862882,142.921853 C275.587969,141.878453 274.960953,136.573753 274.490351,136.182854 C274.01975,135.791955 269,132.813104 269,136.313655" id="Fill-10" fill="#242350"></path>
                <path d="M283.138258,138.214363 C283.138258,138.214363 282.835644,137.792863 283.138258,140.235789 C283.440872,142.679158 283.592179,143.777721 284.650892,143.613114 C285.710477,143.448951 286.466576,143.294992 287.374418,142.063325 C288.282261,140.831657 288.13139,138.214363 287.374418,137.136654 C286.617883,136.059389 282.869219,133.0765 283.00352,135.645432 C283.138258,138.214363 283.138258,136.192938 283.138258,138.214363" id="Fill-11" fill="#242350"></path>
                <path d="M281.548192,164.607415 C281.548192,164.607415 286.055699,165.039671 287.315873,162.051431 C288.57656,159.063619 288.269976,155.426356 284.90934,155.638003 C281.548192,155.849224 275.567234,164.299331 281.548192,164.607415" id="Fill-12" fill="#242350"></path>
                <path d="M271.392651,162.58717 C271.392651,162.58717 273,162.013939 273,160.867476 C273,159.721014 272.123264,155.422194 269.492635,155.636949 C266.862849,155.852117 268.908566,159.147783 268.177953,160.867476 C267.44734,162.58717 269.054268,162.730478 271.392651,162.58717" id="Fill-13" fill="#242350"></path>
                <path d="M258,162.944703 C258,162.944703 258,164.116398 258,159.444152 C258,154.771406 254.862656,155.293106 253.137118,156.336505 C251.412031,157.379905 252.039047,162.684605 252.509649,163.075504 C252.980702,163.466403 258,166.445254 258,162.944703" id="Fill-14" fill="#242350"></path>
                <path d="M243.862145,161.043917 C243.862145,161.043917 244.164784,161.465861 243.862145,159.022492 C243.559506,156.579124 243.40775,155.481005 242.348949,155.645169 C241.289712,155.809332 240.533115,155.963734 239.625633,157.194957 C238.717716,158.426625 238.8686,161.043917 239.625633,162.121626 C240.381795,163.199335 244.131206,166.18178 243.996457,163.612849 C243.862145,161.043917 243.862145,163.065342 243.862145,161.043917" id="Fill-15" fill="#242350"></path>
                <path d="M229.925015,160.071945 C231.402433,159.67301 230.927151,157.253397 230.927151,156.514344 C230.927151,155.774437 228.636553,155.427926 227.205343,155.749291 C225.773306,156.070656 223.626284,157.362934 224.055771,159.00897 C224.485258,160.655005 226.059631,161.115741 229.925015,160.071945" id="Fill-16" fill="#242350"></path>
                <path d="M255.392554,179.671341 C255.392554,179.671341 257,180.244181 257,181.390686 C257,182.537191 256.123632,186.836172 253.493266,186.621409 C250.862899,186.406645 252.90874,183.110443 252.178082,181.390686 C251.447004,179.671341 253.054871,179.527615 255.392554,179.671341" id="Fill-17" fill="#242350"></path>
                <path d="M272.31525,185.629179 C272.31525,185.629179 273.487483,185.629179 268.815092,185.629179 C264.1422,185.629179 264.663916,182.491688 265.707348,180.76652 C266.75078,179.040899 272.055645,179.668398 272.446055,180.139021 C272.836966,180.609645 275.816411,185.629179 272.31525,185.629179" id="Fill-18" fill="#242350"></path>
                <path d="M26.6234542,37.7357133 C29.2116288,45.2853187 17.6097091,54.6278112 17.6097091,54.6278112 C17.6097091,54.6278112 2.90189714,54.9101792 0.314136027,47.3605738 C-2.27362509,39.8109684 11.9160557,38.0185084 13.9865127,44.0580219 C11.9160557,38.0185084 24.0352796,30.1861078 26.6234542,37.7357133" id="Fill-19" fill="#D74A7F"></path>
                <path d="M94.9672257,209.444985 C88.2171837,211.158052 81,200.358189 81,200.358189 C81,200.358189 81.8823292,187.502996 88.632819,185.78993 C95.382413,184.076863 95.8500027,196.589792 90.4498796,197.960158 C95.8500027,196.589792 101.717268,207.732354 94.9672257,209.444985" id="Fill-20" fill="#7387B6"></path>
                <path d="M165.062107,9.8496302 C170.837212,11.836914 171,24.2887029 171,24.2887029 C171,24.2887029 164.232662,34.35637 158.457557,32.3695281 C152.682453,30.3822443 158.294769,19.9172973 162.914853,21.5068591 C158.294769,19.9172973 159.286594,7.86278834 165.062107,9.8496302" id="Fill-21" fill="#7387B6"></path>
                <path d="M48,136.436088 C53.9967171,137.211242 103.22401,142.628772 173.701041,142.629179 C187.084417,142.629179 201.234378,142.433762 216,141.974125 L215.972637,141.160294 C201.215993,141.619524 187.075866,141.814941 173.701041,141.814941 C103.274032,141.815349 54.0642689,136.398633 48.115009,135.629179 L48,136.436088" id="Fill-22" fill="#242350"></path>
            </g>
        </g>
    </g>
</svg>