<?xml version="1.0" encoding="UTF-8"?>
<svg width="768px" height="564px" viewBox="0 0 768 564" version="1.1" xmlns="http://www.w3.org/2000/svg" xmlns:xlink="http://www.w3.org/1999/xlink">
    <!-- Generator: Sketch 63.1 (92452) - https://sketch.com -->
    <title>Group 12 Copy</title>
    <desc>Created with Sketch.</desc>
    <g id="ab-design" stroke="none" stroke-width="1" fill="none" fill-rule="evenodd">
        <g id="ab-home-copy" transform="translate(0.000000, -3665.000000)">
            <g id="Group-12-Copy" style="mix-blend-mode: multiply;" transform="translate(-154.000000, 3665.000000)">
                <rect id="Rectangle" fill="#F3EDDF" opacity="0.653366815" x="0" y="11.5" width="1055" height="543"></rect>
                <path d="M48.2475879,50.6092454 C99.1129991,74.124552 172.362145,74.124552 267.995024,50.6092454 C363.627904,27.0939387 449.55222,30.033352 525.767973,59.4274854 C592.313162,80.019199 658.249202,80.019199 723.576095,59.4274854 C788.902988,38.8357717 860.626788,38.8357717 938.747495,59.4274854 C991.305374,84.8575049 1032.56558,84.8575049 1062.5281,59.4274854 C1092.49063,33.9974659 1092.49063,14.3549707 1062.5281,0.5 L17,0.5 L48.2475879,50.6092454 Z" id="Path-2" fill="#FFFFFF"></path>
                <path d="M55.2475879,535.609245 C106.112999,559.124552 179.362145,559.124552 274.995024,535.609245 C370.627904,512.093939 456.55222,515.033352 532.767973,544.427485 C599.313162,565.019199 665.249202,565.019199 730.576095,544.427485 C795.902988,523.835772 867.626788,523.835772 945.747495,544.427485 C998.305374,569.857505 1039.56558,569.857505 1069.5281,544.427485 C1099.49063,518.997466 1099.49063,499.354971 1069.5281,485.5 L24,485.5 L55.2475879,535.609245 Z" id="Path-2-Copy" fill="#FFFFFF" transform="translate(558.000000, 524.500000) rotate(-180.000000) translate(-558.000000, -524.500000) "></path>
            </g>
        </g>
    </g>
</svg>