<?xml version="1.0" encoding="UTF-8"?>
<svg width="428px" height="558px" viewBox="0 0 428 558" version="1.1" xmlns="http://www.w3.org/2000/svg" xmlns:xlink="http://www.w3.org/1999/xlink">
    <!-- Generator: Sketch 63.1 (92452) - https://sketch.com -->
    <title>Group 4</title>
    <desc>Created with Sketch.</desc>
    <g id="ab-design" stroke="none" stroke-width="1" fill="none" fill-rule="evenodd">
        <g id="ab-home-copy" transform="translate(0.000000, -2940.000000)">
            <g id="Group-4" transform="translate(-199.000000, 2941.000000)">
                <path d="M0,17.7293417 C0,17.7293417 338.267212,-48.9423591 311,76.2948708 C283.736388,201.532101 210.917819,201.532101 210.917819,311.33083 C210.917819,421.12956 329.843149,547.785772 411.641186,554.842131 C493.437423,561.898491 593.423914,330.140191 495.382921,313.558463 C397.340128,296.976736 392.935106,371.105967 392.935106,371.105967 C392.935106,371.105967 351.073896,293.074778 293.790608,314.533953 C236.50912,335.993128 299.297335,478.400248 388.528284,496.932954 C477.757433,515.46566 528.430488,358.426198 489.876194,352.573261 C451.3201,346.720324 455.725122,369.156582 425.980872,381.836352 C396.238423,394.516121 397.340128,396.465506 370.902795,373.056946 C344.463662,349.646793 275.063413,359.401687 321.331446,416.949192 C367.597679,474.496696 401.748751,475.341482 422.677556,459.800596 C443.606361,444.261303 511.906704,386.712205 444.709867,407.195891 C377.513029,427.677982 383.568809,389.638674 361.813725,400.369058 C340.05864,411.097849 368.699384,445.123623 397.340128,445.665562 C425.980872,446.210688 417.053817,421.970093 395.034107,425.660058" id="Stroke-1-Copy-6" stroke="#171767" stroke-width="3"></path>
                <path d="M396.986705,404.239196 C396.986705,362.642486 304,341.857506 304,393.833331 C304,445.809155 396.986705,477 396.986705,477 C396.986705,477 490,445.809155 490,393.833331 C490,341.857506 396.986705,362.642486 396.986705,404.239196" id="Fill-1-Copy-4" fill="#DC4E84" style="mix-blend-mode: multiply;"></path>
                <path d="M291.993567,505.658281 C291.993567,485.589693 247,475.561852 247,500.637907 C247,525.713963 291.993567,540.762178 291.993567,540.762178 C291.993567,540.762178 337,525.713963 337,500.637907 C337,475.561852 291.993567,485.589693 291.993567,505.658281" id="Fill-1-Copy-5" fill="#DC4E84" style="mix-blend-mode: multiply;" transform="translate(292.000000, 513.262178) rotate(-28.000000) translate(-292.000000, -513.262178) "></path>
                <path d="M445.995997,254.061587 C445.995997,241.655551 418,235.456522 418,250.958083 C418,266.459645 445.995997,275.762178 445.995997,275.762178 C445.995997,275.762178 474,266.459645 474,250.958083 C474,235.456522 445.995997,241.655551 445.995997,254.061587" id="Fill-1-Copy-6" fill="#DC4E84" style="mix-blend-mode: multiply;" transform="translate(446.000000, 258.762178) rotate(-11.000000) translate(-446.000000, -258.762178) "></path>
                <path d="M527,480.228069 C527,507.583766 575.992995,524 575.992995,524 C575.992995,524 625,507.583766 625,480.228069 C625,452.872372 575.992995,463.811835 575.992995,485.70484 C575.992995,463.811835 527,452.872372 527,480.228069 Z" id="Fill-1-Copy-7" fill="#DC4E84" transform="translate(576.000000, 494.000000) rotate(39.000000) translate(-576.000000, -494.000000) "></path>
            </g>
        </g>
    </g>
</svg>