<svg height="43" viewBox="0 0 71 43" width="71" xmlns="http://www.w3.org/2000/svg"><path d="m336.945318 150.707874c-.860615 2.593137-3.812723 3.9452-6.59471 3.006828-2.781988-.938373-4.333095-3.793849-3.482488-6.397076.860615-2.593136 3.812723-3.935109 6.595711-3.006827 2.780987.938373 4.333095 3.803939 3.481487 6.397075m-18.603288-.16144c-.850608 2.593136-3.802716 3.945199-6.584703 3.006827s-4.343103-3.793849-3.481487-6.397075c.859614-2.593136 3.811723-3.935109 6.59371-3.006827 2.781987.938372 4.334095 3.803939 3.47248 6.397075m4.152966-7.991299c0-15.689987-34.994996-23.529935-34.994996-3.925019s34.994996 31.369884 34.994996 31.369884 35.005004-11.764968 35.005004-31.369884-35.005004-11.764968-35.005004 3.925019" fill="#dc4e84" fill-rule="evenodd" transform="translate(-287 -127)"/></svg>