<?xml version="1.0" encoding="UTF-8"?>
<svg width="94px" height="38px" viewBox="0 0 94 38" version="1.1" xmlns="http://www.w3.org/2000/svg" xmlns:xlink="http://www.w3.org/1999/xlink">
    <!-- Generator: Sketch 63.1 (92452) - https://sketch.com -->
    <title>Group 52 Copy 3</title>
    <desc>Created with Sketch.</desc>
    <g id="ab-design" stroke="none" stroke-width="1" fill="none" fill-rule="evenodd">
        <g id="ab-home-copy" transform="translate(-559.000000, -805.000000)" fill="#18186B">
            <g id="Group-52-Copy-3" transform="translate(559.000000, 805.000000)">
                <path d="M6.06552784,0 L3.02947032,1.96789555 C3.02947032,1.96789555 -2.37169279,5.88986473 1.30176908,9.29696747 C4.97709469,12.7040702 4.39373926,12.7507192 6.06552784,10.2195805 C8.77915568,6.11101542 13.4143153,0 6.06552784,0" id="Fill-1"></path>
                <path d="M24.4735804,1.0266185 C24.4735804,1.0266185 19.9656052,0.498206817 18.7060762,4.15003822 C17.4447682,7.80186961 17.7525345,12.2463185 21.1112784,11.9893512 C24.4735804,11.7305743 30.4545641,1.40302134 24.4735804,1.0266185" id="Fill-3"></path>
                <path d="M36.9517696,2.0546723 C36.9517696,2.0546723 35.0217501,2.78976364 35.0217501,4.26547333 C35.0217501,5.73934068 36.0752848,11.2663432 39.23063,10.9899931 C42.3859753,10.713643 39.9318179,6.47443202 40.8083027,4.26547333 C41.6847874,2.0546723 39.7565209,1.86859655 36.9517696,2.0546723" id="Fill-5"></path>
                <path d="M54.0217501,3.68438364 L54.0217501,7.18652339 C54.0217501,11.8572023 57.158595,11.335533 58.885428,10.2939334 C60.6091243,9.24885594 59.9833237,3.94521828 59.5112286,3.55396632 C59.0407019,3.16271436 54.0217501,0.183982785 54.0217501,3.68438364" id="Fill-7"></path>
                <path d="M70.187554,5.38154712 C70.187554,5.38154712 69.8245003,4.86786805 70.187554,7.85209883 C70.5506077,10.8382112 70.7321346,12.1816795 72.0028225,11.9803475 C73.2735104,11.7790154 74.1811446,11.5927361 75.272121,10.0855679 C76.3594668,8.58028124 76.1797552,5.38154712 75.272121,4.0644213 C74.3626715,2.7491771 69.8644362,-0.897379803 70.0259951,2.24114285 C70.187554,5.38154712 70.187554,2.91287702 70.187554,5.38154712" id="Fill-9"></path>
                <path d="M86.4035853,6.66913483 C84.5044308,7.14828417 85.1153991,10.0497996 85.1153991,10.9371132 C85.1153991,11.8244268 88.0598248,12.2414642 89.9000908,11.8563701 C91.7403569,11.471276 94.500756,9.92025184 93.9505164,7.94509178 C93.3965963,5.96815709 91.3723037,5.41624804 86.4035853,6.66913483" id="Fill-11"></path>
                <path d="M86.9779724,38 L90.0140299,36.0306154 C90.0140299,36.0306154 95.415193,32.1108489 91.7417311,28.7024315 C88.0664055,25.2957416 88.6497609,25.2490983 86.9779724,27.7816578 C84.2643445,31.889725 79.6291849,38 86.9779724,38" id="Fill-14"></path>
                <path d="M69.5699198,36.9734063 C69.5699198,36.9734063 74.077895,37.5017322 75.337424,33.848684 C76.598732,30.1992545 76.2909657,25.7537174 72.9322218,26.010643 C69.5699198,26.2711873 63.5889361,36.5970645 69.5699198,36.9734063" id="Fill-16"></path>
                <path d="M57.0917306,34.9460001 C57.0917306,34.9460001 59.0217501,34.209152 59.0217501,32.7354559 C59.0217501,31.2617597 57.9682154,25.7353991 54.8128701,26.009875 C51.6575249,26.2880352 54.1116823,30.5249116 53.2351975,32.7354559 C52.3587127,34.9460001 54.2869793,35.1302121 57.0917306,34.9460001" id="Fill-18"></path>
                <path d="M40.0217501,34.3143974 L40.0217501,30.8139662 C40.0217501,26.1415079 36.8849052,26.6649206 35.1580721,27.7065293 C33.4343759,28.7498769 34.0601764,34.0552994 34.5322716,34.4448159 C35.0027983,34.8378101 40.0217501,37.8165675 40.0217501,34.3143974" id="Fill-20"></path>
                <path d="M22.8559478,32.6195038 C22.8559478,32.6195038 23.2190016,33.133145 22.8559478,30.1491343 C22.492894,27.1632422 22.3113671,25.8198729 21.0406788,26.0193087 C19.7699905,26.2225074 18.8623561,26.4087729 17.7713794,27.9139485 C16.6840333,29.4210056 16.8637449,32.6195038 17.7713794,33.9346511 C18.6790139,35.2516797 23.1790657,38.8979677 23.0175067,35.757795 C22.8559478,32.6195038 22.8559478,35.0879919 22.8559478,32.6195038" id="Fill-24"></path>
                <path d="M7.63991485,32.3309808 C9.53906942,31.8519142 8.92810109,28.9491258 8.92810109,28.0619655 C8.92810109,27.1748052 5.9836754,26.7578399 4.14340935,27.1446418 C2.30314329,27.5296693 -0.457255789,29.0804255 0.092983762,31.0552443 C0.646903845,33.0318374 2.67119651,33.5836511 7.63991485,32.3309808" id="Fill-26"></path>
            </g>
        </g>
    </g>
</svg>