<?xml version="1.0" encoding="utf-8"?>
<!-- Generator: Adobe Illustrator 24.1.0, SVG Export Plug-In . SVG Version: 6.00 Build 0)  -->
<svg version="1.1" id="Layer_1" xmlns="http://www.w3.org/2000/svg" xmlns:xlink="http://www.w3.org/1999/xlink" x="0px" y="0px"
	 viewBox="0 0 1454 800" style="enable-background:new 0 0 1454 800;" xml:space="preserve">
<style type="text/css">
	.st0{opacity:0.5492;}
	.st1{fill-rule:evenodd;clip-rule:evenodd;fill:#F6F4ED;}
	.st2{opacity:0.6486;}
	.st3{filter:url(#Adobe_OpacityMaskFilter);}
	.st4{fill-rule:evenodd;clip-rule:evenodd;fill:#FFFFFF;}
	.st5{opacity:0.4847;}
	.st6{filter:url(#Adobe_OpacityMaskFilter_1_);}
	.st7{mask:url(#mask-6_1_);fill-rule:evenodd;clip-rule:evenodd;fill:#F6F4ED;}
	.st8{filter:url(#Adobe_OpacityMaskFilter_2_);}
	.st9{mask:url(#mask-9_1_);fill-rule:evenodd;clip-rule:evenodd;fill:#F6F4ED;}
</style>
<desc>Created with Sketch.</desc>
<g id="ab-design">
	<g id="ab-home" transform="translate(0.000000, -81.000000)">
		<g id="Group-4" transform="translate(-154.000000, 24.000000)">
			
				<g id="Group-2" transform="translate(1112.000000, 485.000000) rotate(17.000000) translate(-1112.000000, -485.000000) translate(793.000000, 76.000000)" class="st0">
				<path id="Fill-1" class="st1" d="M458.9,720.1c12.8-7.6,240.3-110.1,311.9-380.1C842.5,70,630.2,281.5,510.2,210.6
					c-61-36-59.8-127.1-50-194c10-68.1-133.7-131.1-240.3,110C118.1,356.8,67.4,951.8,458.9,720.1"/>
				<g id="Bitmap" class="st2">
					<g id="Mask">
						<path id="path-2_1_" class="st1" d="M458.9,720.1c12.8-7.6,240.3-110.1,311.9-380.1C842.5,70,630.2,281.5,510.2,210.6
							c-61-36-59.8-127.1-50-194c10-68.1-133.7-131.1-240.3,110C118.1,356.8,67.4,951.8,458.9,720.1"/>
					</g>
					<defs>
						<filter id="Adobe_OpacityMaskFilter" filterUnits="userSpaceOnUse" x="-119.2" y="-599.6" width="829" height="2059.2">
							<feColorMatrix  type="matrix" values="1 0 0 0 0  0 1 0 0 0  0 0 1 0 0  0 0 0 1 0"/>
						</filter>
					</defs>
					<mask maskUnits="userSpaceOnUse" x="-119.2" y="-599.6" width="829" height="2059.2" id="mask-3_1_">
						<g class="st3">
							<path id="path-2_2_" class="st4" d="M458.9,720.1c12.8-7.6,240.3-110.1,311.9-380.1C842.5,70,630.2,281.5,510.2,210.6
								c-61-36-59.8-127.1-50-194c10-68.1-133.7-131.1-240.3,110C118.1,356.8,67.4,951.8,458.9,720.1"/>
						</g>
					</mask>
					<g style="mask:url(#mask-3_1_);enable-background:new    ;">
						
							<image style="overflow:visible;" width="1000" height="1500" xlink:href="75AA313F01194C67.png"  transform="matrix(1 0 0 1 -204.7291 -320.0251)">
						</image>
					</g>
				</g>
			</g>
			<g id="Group-3" transform="translate(0.000000, 156.000000)" class="st5">
				<g id="Clip-2">
				</g>
				<defs>
					<filter id="Adobe_OpacityMaskFilter_1_" filterUnits="userSpaceOnUse" x="154" y="0" width="466" height="493">
						<feColorMatrix  type="matrix" values="1 0 0 0 0  0 1 0 0 0  0 0 1 0 0  0 0 0 1 0"/>
					</filter>
				</defs>
				<mask maskUnits="userSpaceOnUse" x="154" y="0" width="466" height="493" id="mask-6_1_">
					<g class="st6">
						<polygon id="path-5_1_" class="st4" points="154,0 620,0 620,493 154,493 						"/>
					</g>
				</mask>
				<path id="Fill-1_1_" class="st7" d="M289.9,62.4c0,0-18.4,49.8-87.8,136.2c-86.5,107.7-34.8,177.2-10.3,227
					s109.5,84.5,264.7,58.3C611.7,457.8,677,219.4,560.6,101.5C444.3-16.4,345-34.5,289.9,62.4"/>
			</g>
			
				<g id="Group-3-Copy-4" transform="translate(704.000000, 207.000000) rotate(-114.000000) translate(-704.000000, -207.000000) translate(632.000000, 130.500000)" class="st5">
				<g id="Clip-2_1_">
				</g>
				<defs>
					<filter id="Adobe_OpacityMaskFilter_2_" filterUnits="userSpaceOnUse" x="-16.9" y="-321.9" width="60.8" height="195.8">
						<feColorMatrix  type="matrix" values="1 0 0 0 0  0 1 0 0 0  0 0 1 0 0  0 0 0 1 0"/>
					</filter>
				</defs>
				<mask maskUnits="userSpaceOnUse" x="-16.9" y="-321.9" width="60.8" height="195.8" id="mask-9_1_">
					<g class="st8">
						<polygon id="path-8_1_" class="st4" points="-62.6,141.2 81.4,141.2 81.4,293.2 -62.6,293.2 						"/>
					</g>
				</mask>
				<path id="Fill-1_2_" class="st9" d="M-20.6,160.4c0,0-5.7,15.3-27.1,42c-26.7,33.2-10.7,54.6-3.2,70s33.8,26.1,81.8,18
					C78.8,282.3,99,208.8,63,172.5C27.1,136.1-3.6,130.6-20.6,160.4"/>
			</g>
		</g>
	</g>
</g>
</svg>
