<?xml version="1.0" encoding="UTF-8"?>
<svg width="479px" height="377px" viewBox="0 0 479 377" version="1.1" xmlns="http://www.w3.org/2000/svg" xmlns:xlink="http://www.w3.org/1999/xlink">
    <!-- Generator: Sketch 63.1 (92452) - https://sketch.com -->
    <title>Group</title>
    <desc>Created with Sketch.</desc>
    <defs>
        <polygon id="path-1" points="-5.95056784 17.4145054 64.1293573 17.1202477 63.9505678 60.5854946 -6.12935735 60.8797523"></polygon>
        <polygon id="path-3" points="6.09682766 19.9723102 79.3715815 20.8334874 79.9031723 66.0276898 6.62841852 65.1665126"></polygon>
    </defs>
    <g id="ab-design" stroke="none" stroke-width="1" fill="none" fill-rule="evenodd">
        <g id="ab-home-copy" transform="translate(-289.000000, -400.000000)">
            <g id="Group" transform="translate(284.000000, 399.000000)">
                <g id="Group-7-Copy" transform="translate(46.000000, 35.000000)" stroke="#000000">
                    <path d="M44.6835058,341.940254 C60.9293266,343.159603 81.7052038,325.406269 95.6336851,316.908191 C124.068516,299.559996 190.673937,278.765172 270.692549,309.421975 C374.502512,349.193416 424.742823,306.438503 435.709608,276.609677 C446.675415,246.781834 487.395078,217.916687 495.119543,191.601357 C522.894372,96.9690281 345.189635,-90.7793107 223.543002,53.9348448 C99.4411619,201.569539 51.694191,127.686799 16.6388093,172.31597 C-9.89032759,206.092932 5.63584685,256.896534 4.64828868,302.633936 C4.02837592,331.317164 24.0542956,340.391483 44.6835058,341.940254 Z" id="Stroke-1"></path>
                </g>
                <g id="Group-3-Copy-6" transform="translate(323.000000, 0.000000)">
                    <mask id="mask-2" fill="white">
                        <use xlink:href="#path-1"></use>
                    </mask>
                    <g id="Clip-2" transform="translate(29.000000, 39.000000) rotate(79.000000) translate(-29.000000, -39.000000) "></g>
                    <path d="M28.9948825,33.1179773 C28.9948825,17.5938464 -6.796875,9.83677256 -6.796875,29.2344487 C-6.796875,48.6321249 28.9948825,60.2727273 28.9948825,60.2727273 C28.9948825,60.2727273 64.796875,48.6321249 64.796875,29.2344487 C64.796875,9.83677256 28.9948825,17.5938464 28.9948825,33.1179773" id="Fill-1" fill="#E5518D" mask="url(#mask-2)" transform="translate(29.000000, 39.000000) rotate(79.000000) translate(-29.000000, -39.000000) "></path>
                </g>
                <g id="Group-3-Copy-7" transform="translate(0.000000, 290.000000)">
                    <mask id="mask-4" fill="white">
                        <use xlink:href="#path-3"></use>
                    </mask>
                    <g id="Clip-2" transform="translate(43.000000, 43.000000) rotate(-44.000000) translate(-43.000000, -43.000000) "></g>
                    <path d="M42.9947029,36.822753 C42.9947029,20.5194513 5.94680851,12.3730426 5.94680851,32.7443065 C5.94680851,53.1155703 42.9947029,65.3404255 42.9947029,65.3404255 C42.9947029,65.3404255 80.0531915,53.1155703 80.0531915,32.7443065 C80.0531915,12.3730426 42.9947029,20.5194513 42.9947029,36.822753" id="Fill-1" fill="#6E92F6" mask="url(#mask-4)" transform="translate(43.000000, 43.000000) rotate(-44.000000) translate(-43.000000, -43.000000) "></path>
                </g>
            </g>
        </g>
    </g>
</svg>