<svg height="88" viewBox="0 0 94 88" width="94" xmlns="http://www.w3.org/2000/svg" xmlns:xlink="http://www.w3.org/1999/xlink"><mask id="a" fill="#fff"><path d="m.58729793.69027601h8.82950763v5.91673568h-8.82950763z" fill="#fff" fill-rule="evenodd"/></mask><g fill="none" fill-rule="evenodd"><path d="m6.06552784 0-3.03605752 1.96789555s-5.40116311 3.92196918-1.72770124 7.32907192c3.67532561 3.40710273 3.09197018 3.45375173 4.76375876.92261303 2.71362784-4.10856508 7.34878746-10.2195805 0-10.2195805" fill="#18186b"/><path d="m24.4735804 1.02419863s-4.5079752-.48037425-5.7675042 2.83947248c-1.261308 3.31984672-.9535417 7.36025479 2.4052022 7.12664819 3.362302-.2352518 9.3432857-9.62393627 3.362302-9.96612067" fill="#18186b"/><path d="m36.9517696 2.0546723s-1.9300195.73509134-1.9300195 2.21080103c0 1.47386735 1.0535347 7.00086987 4.2088799 6.72451977 3.1553453-.2763501.7011879-4.51556108 1.5776727-6.72451977.8764847-2.21080103-1.0517818-2.39687678-3.8565331-2.21080103" fill="#18186b"/><path d="m54.0217501 3.68438364v3.50213975c0 4.67067891 3.1368449 4.14900961 4.8636779 3.10741001 1.7236963-1.04507746 1.0978957-6.34871512.6258006-6.73996708-.4705267-.39125196-5.4894785-3.36998353-5.4894785.13041732" fill="#18186b"/><path d="m70.187554 4.98322465s-.3630537-.46698097 0 2.2459561c.3630537 2.71464762.5445806 3.93598245 1.8152685 3.75295325 1.2706879-.1830291 2.1783221-.3523739 3.2692985-1.72252683 1.0873458-1.3684424.9076342-4.27638252 0-5.47376962-.9094495-1.19567655-5.4076848-4.51072828-5.2461259-1.65752586.1615589 2.85491296.1615589.61066742.1615589 2.85491296" fill="#18186b"/><path d="m1.94306944 1.350125c-1.86333333.4725-1.26388888 3.33375-1.26388888 4.20875s2.88888888 1.28625 4.69444444.9065 4.51388889-1.90925 3.97402778-3.857c-.54347222-1.9495-2.52958334-2.49375-7.40458334-1.25825" fill="#000" mask="url(#a)" transform="translate(84.02175 5)"/><g fill="#18186b"><path d="m86.9779724 38 3.0360575-1.9693846s5.4011631-3.9197665 1.7277012-7.3281839c-3.6753256-3.4066899-3.0919702-3.4533332-4.7637587-.9207737-2.7136279 4.1080672-7.3487875 10.2183422 0 10.2183422"/><path d="m69.5699198 36.9758239s4.5079752.4802963 5.7675042-2.8406566c1.261308-3.3176632.9535417-7.3590606-2.4052022-7.1254919-3.362302.2368585-9.3432857 9.6240196-3.362302 9.9661485"/><path d="m57.0917306 34.9460001s1.9300195-.7368481 1.9300195-2.2105442c0-1.4736962-1.0535347-7.0000568-4.20888-6.7255809-3.1553452.2781602-.7011878 4.5150366-1.5776726 6.7255809-.8764848 2.2105442 1.0517818 2.3947562 3.8565331 2.2105442"/><path d="m40.0217501 34.3143974v-3.5004312c0-4.6724583-3.1368449-4.1490456-4.863678-3.1074369-1.7236962 1.0433476-1.0978957 6.3487701-.6258005 6.7382866.4705267.3929942 5.4894785 3.3717516 5.4894785-.1304185"/><path d="m91.0217501 83.3155195v-3.5006023c0-4.6726866-3.1368449-4.1509873-4.863678-3.1075887-1.7236962 1.0433985-1.0978957 6.3490803-.6258005 6.7386158.4705267.3912744 5.4894785 3.3701774 5.4894785-.1304248"/><path d="m22.8559478 33.0177308s.3630538.4669465 0-2.2457905c-.3630538-2.7144474-.5445807-3.9356922-1.815269-3.7543869-1.2706883.1847261-2.1783227.3540583-3.2692994 1.7223998-1.0873461 1.3700519-.9076345 4.2777776 0 5.4733659.9076345 1.1972988 5.4076863 4.5121061 5.2461273 1.6574037-.1615589-2.852992-.1615589-.608912-.1615589-2.852992"/><path d="m7.63991485 31.3309808c1.89915457-.4790666 1.28818624-3.381855 1.28818624-4.2690153s-2.94442569-1.3041256-4.78469174-.9173237c-1.84026606.3850275-4.60066514 1.9357837-4.05042559 3.9106025.55392009 1.9765931 2.57821275 2.5284068 7.54693109 1.2757365"/><path d="m69.9795201 51 3.0343525 1.9693397s5.4014456 3.9214046 1.7277916 7.3280169c-3.6755179 3.4066123-3.0921319 3.4532545-4.7621441.9224802-2.7156336-4.1079736-7.3510357-10.2198368 0-10.2198368"/><path d="m18.5699777 54.0241761s4.506207-.4802963 5.767518 2.8406566c1.261311 3.3176632.953544 7.3590606-2.406987 7.1254919-3.360531-.2368585-9.341529-9.6240196-3.360531-9.9661485"/><path d="m54.5699198 75.0241986s4.5079752-.4803742 5.7675042 2.8394725c1.261308 3.3198467.9535417 7.3602548-2.4052022 7.1266482-3.362302-.2352518-9.3432857-9.6255814-3.362302-9.9661207"/><path d="m2.56997773 77.0265937s4.50798601-.5283257 5.76751802 3.1247211c1.261311 3.6512375.953544 8.0949637-2.40698701 7.8380381-3.36053101-.2587348-9.34152902-10.5864176-3.36053101-10.9627592"/><path d="m38.0929588 54.0539999s1.9287913.7368481 1.9287913 2.2105442c0 1.4736962-1.052068 7.0000568-4.208272 6.7255809-3.1579574-.2781602-.7013786-4.5150366-1.5781019-6.7255809-.8767234-2.2105442 1.0503145-2.3947562 3.8575826-2.2105442"/><path d="m20.0929588 78.0546828s1.9287913.7350905 1.9287913 2.2089561c0 1.475708-1.052068 7.0027041-4.208272 6.7263542-3.1579574-.2763498-.7013786-4.5155558-1.5781019-6.7263542-.8767234-2.2089561 1.0503145-2.3950316 3.8575826-2.2089561"/><path d="m72.0917306 76.0546619s1.9300195.7367936 1.9300195 2.2103807-1.0535347 6.9995387-4.20888 6.7250831c-3.1570982-.2781396-.7011878-4.5147025-1.5776726-6.7250831-.8764848-2.2103807 1.0517818-2.3964211 3.8565331-2.2103807"/><path d="m57.3373665 61h-3.5021398c-4.6706789 0-4.1490097-3.1368449-3.10741-4.863678 1.0450775-1.7236962 6.3487151-1.0978957 6.7399671-.6258005.3912519.4705267 3.3699835 5.4894785-.1304173 5.4894785"/><path d="m86.5786081 59.8779158s-.3817979.4255453.2940656-2.2689936.9959239-3.9014133 2.0990762-3.5491176c1.1015276.3505517 1.8846195.6435501 2.6709607 2.1695835.7879659 1.5260333.2485748 4.438577-.713231 5.5286008-.9618058 1.0900239-5.3825382 3.842116-4.8658925.9818935.515021-2.8619666.2209553-.592973.515021-2.8619666"/><path d="m32.5786418 80.8771156s-.3834458.4254919.2924587-2.2669648c.6775293-2.6942005.9959843-3.9026671 2.0992034-3.5504157 1.1015944.3522515 1.8863585.6434693 2.6727474 2.169311.7880137 1.5258417.2469651 4.4397634-.7132742 5.5279065-.9618641 1.0898869-5.3828645 3.8433772-4.8661875.9835139.5150522-2.8633509.2209688-.5946423.5150522-2.8633509"/><path d="m4.17450922 62.661749c-1.44541572 1.2023068-3.30210086-1.143025-3.97446661-1.7136112-.67407227-.5668812.68601785-3.1752754 2.02562983-4.39055 1.34302499-1.2152746 4.09050943-2.4157288 5.2748288-.7113803 1.1877324 1.7062011.45393221 3.669907-3.32599202 6.8155415"/></g></g></svg>