<?xml version="1.0" encoding="UTF-8"?>
<svg width="768px" height="235px" viewBox="0 0 768 235" version="1.1" xmlns="http://www.w3.org/2000/svg" xmlns:xlink="http://www.w3.org/1999/xlink">
    <!-- Generator: Sketch 63.1 (92452) - https://sketch.com -->
    <title>Group 2</title>
    <desc>Created with Sketch.</desc>
    <g id="ab-design" stroke="none" stroke-width="1" fill="none" fill-rule="evenodd">
        <g id="ab-home-copy" transform="translate(0.000000, -2402.000000)">
            <g id="Group-2" transform="translate(1.000000, 2402.000000)">
                <path d="M892,7.64286538 C892,7.64286538 653.856631,-39.7596973 664.824438,101.539872 C668.01908,142.696824 623.678018,173.022315 556.09684,192.951616 C391.659104,241.443361 89.6304468,228.385447 0,160.048166" id="Path-3" stroke="#171767" stroke-width="3"></path>
                <path d="M704.070949,24.4220015 C710.400113,22.6636174 709.745394,7.01382087 701.83692,9.21068426 C693.92859,11.4080851 693,27.4977603 693,27.4977603 C693,27.4977603 701.564212,40.9546487 709.472687,38.7577866 C717.381017,36.5603845 710.400113,22.6636174 704.070949,24.4220015" id="Fill-1-Copy-2" fill="#7297FF"></path>
                <path d="M110.403414,207.090198 C122.067865,210.908761 136.412386,186.409661 121.837457,181.638269 C107.262509,176.866936 90,200.410781 90,200.410781 C90,200.410781 90.2279822,229.688795 104.802911,234.460187 C119.377859,239.23152 122.067865,210.908761 110.403414,207.090198" id="Fill-1-Copy-3" fill="#FBB938"></path>
            </g>
        </g>
    </g>
</svg>