<?xml version="1.0" encoding="UTF-8"?>
<svg width="1284px" height="828px" viewBox="0 0 1284 828" version="1.1" xmlns="http://www.w3.org/2000/svg" xmlns:xlink="http://www.w3.org/1999/xlink">
    <!-- Generator: Sketch 63.1 (92452) - https://sketch.com -->
    <title>Group 14</title>
    <desc>Created with Sketch.</desc>
    <defs>
        <polygon id="path-1" points="0 0.621212121 81 0.621212121 81 81.3787879 0 81.3787879"></polygon>
    </defs>
    <g id="ab-design" stroke="none" stroke-width="1" fill="none" fill-rule="evenodd">
        <g id="Group-14" transform="translate(2.000000, 2.000000)">
            <path d="M1281,237.968624 C1249.9311,224.370294 1247.98771,286.536061 1253.81558,284.5964 C1259.64114,282.652138 1273.23335,255.455478 1246.04663,247.683032 C1218.8599,239.912886 1218.03655,274.969427 1218.03655,274.969427 C1201.6776,416.879851 1162.54537,403.104351 1161.44833,420.588905 C1160.3467,438.075759 1154.77872,542.980778 1157.23728,567.186266 C1159.69353,591.394054 1174.19879,692.573913 1174.47708,709.331381 C1174.75306,726.093452 1152.83533,727.540719 1138.79694,727.973288 C1124.75396,728.401256 1110.11531,723.656796 1112.05639,715.886651 C1113.99978,708.114204 1115.94087,669.258874 1115.75458,656.896129 C1115.56829,644.531082 1110.11531,558.521069 1095.76184,547.294969 C1081.40837,536.068869 1061.56972,492.469079 1056.63421,489.240914 C1051.70099,486.012748 1031.57026,490.909068 1031.57026,490.909068 C1030.70091,510.717532 1018.8474,527.440487 1008.60379,538.857562 C998.357887,550.272336 991.660675,614.863253 990.738429,629.88124 C989.818482,644.896925 978.751524,645.060289 978.751524,645.060289 C978.751524,645.060289 968.358426,644.004175 959.644231,644.742765 C950.930037,645.479054 956.707302,632.347807 958.4667,626.765819 C960.223798,621.179229 966.417339,585.722331 964.715437,567.186266 C963.013536,548.652501 976.125076,498.299564 976.125076,498.299564 C877.090518,515.781817 809.124858,482.756972 793.667454,476.57675 C778.21005,470.396527 739.431999,459.531669 739.431999,459.531669 C739.431999,459.531669 745.041373,500.239225 736.30418,514.325346 C727.564687,528.411467 729.508074,560.465331 723.263936,572.535862 C717.019798,584.604093 706.203525,587.664292 706.560004,595.613908 C706.914184,603.563524 703.087206,603.204584 703.087206,603.204584 L679.019101,603.204584 C673.193539,603.204584 684.844663,572.124001 686.785751,554.637147 C688.729138,537.152593 679.019101,511.897895 670.481996,493.992276 C661.947191,476.086658 659.601327,432.245274 660.111897,444.509081 C660.627068,456.772887 651.832377,484.696633 648.536668,498.437619 C645.24096,512.178605 641.227692,555.916448 641.227692,555.916448 C648.104294,619.361516 612.994529,653.716282 608.337299,659.972434 C603.684669,666.228587 603.284492,692.573913 595.267157,695.650219 C587.252122,698.728826 556.679994,694.515874 550.854432,692.573913 C545.02887,690.629651 543.085482,680.917544 554.761905,642.292305 C566.433729,603.667065 568.331119,531.324409 559.764115,501.166488 C551.199412,471.006266 496.572979,493.131739 496.572979,493.131739 C409.27924,509.339292 354.397522,479.650755 354.397522,479.650755 C346.306591,482.375023 337.247416,476.926487 323.528712,479.611639 C309.810007,482.299093 288.699531,478.870749 281.804531,476.581352 C274.90953,474.291954 257.630632,473.042565 250.195163,473.284159 C242.759694,473.523453 240.153945,465.270118 239.972256,459.872202 C239.785967,454.474287 234.326083,441.95738 232.322899,429.376049 C230.319716,416.799319 238.212858,414.758419 240.181544,414.48001 C242.15253,414.1993 248.626654,413.327258 248.626654,413.327258 C264.866013,408.005272 291.204086,379.573028 291.204086,379.573028 C289.821866,272.507462 317.827342,298.19473 306.847779,291.347247 C295.863616,284.502063 298.409568,276.823954 296.956052,250.957215 C295.502536,225.088175 294.525093,212.711624 300.350655,212.711624 C306.178517,212.711624 312.00408,218.542109 317.951535,225.89119 C323.90129,233.242572 345.145158,250.957215 345.145158,250.957215 C341.391776,244.516991 339.188504,232.14044 339.487486,213.585967 C339.784169,195.031494 337.247416,181.628741 340.021055,179.71209 C342.796994,177.795438 348.898541,175.800556 360.678458,190.928986 C372.458375,206.055115 386.039087,213.585967 386.039087,213.585967 C397.936298,117.320834 479.004298,65.0650519 567.875745,51.5403507 C656.742593,38.0133486 727.564687,59.2345666 813.724591,19.2218831 C859.813919,-2.18340706 919.552956,-2.15809714 965.150112,2.49432645 C1026.86933,8.79189487 1085.80572,32.4037499 1133.32556,72.308291 C1166.73112,100.358586 1198.49688,139.356572 1210.2216,191.000314 C1210.2216,191.000314 1217.08671,282.820104 1040.04987,259.551084 C964.296862,249.595081 745.064372,207.304505 855.31078,110.668927 C940.375948,36.105901 1199.03275,89.1969108 1138.38067,154.206592 C1084.66498,211.78206 855.331479,146.08901 965.552589,124.568675 C1011.67871,115.560644 1047.72452,149.169918 1018.15514,147.734155 C1018.15514,147.734155 998.661469,153.421985 974.701458,142.048627" id="Stroke-5-Copy" stroke="#18186B" stroke-width="3"></path>
            <g id="Group-5-Copy" transform="translate(0.000000, 401.000000)" stroke="#18186B" stroke-width="3">
                <path d="M622.769387,265.324999 C622.769387,265.324999 774.891297,226.785123 811.217478,320.081204 C847.543659,413.377286 583.534913,451.916507 478.556522,399.182386 C373.576284,346.448265 406.297398,297.770615 493.553699,226.785123 C580.808154,155.796883 357.217575,167.963547 299.955627,226.785123 C242.695527,285.601202 65.5762448,362.588952 101.853599,243.535929" id="Stroke-1"></path>
                <path d="M151.844419,129.446226 L143.742415,34.5333776 C167.996541,30.9861604 167.568238,12.164978 156.986163,4.62714124 C146.401349,-2.91344954 117.295849,-2.46729333 111.562408,15.266039 C105.828967,33.0021255 131.397977,34.5333776 131.397977,34.5333776 L136.49863,130.098936 L35.4258076,148.496898 L151.844419,178 L273,138.694329 L162.092295,107.601096 L0,138.694329 L7.46470464,227.683214 L156.761537,277 L265.535295,210.525479 L271.523495,162.918958" id="Stroke-3"></path>
            </g>
            <path d="M114.577435,397.904874 C93.1453056,417.942319 100.137601,428.469366 114.577435,437.376867 C129.018756,446.284369 151.032585,452.762551 167.33951,433.328003 C183.644947,413.891977 172.293626,418.360505 148.618011,397.904874 C148.618011,397.904874 136.009564,377.868907 114.577435,397.904874 Z" id="Fill-1-Copy-4" fill="#DF4F88" style="mix-blend-mode: multiply;"></path>
            <g id="Group-15-Copy" transform="translate(331.000000, 276.000000)">
                <path d="M69.3950874,170 C69.3950874,170 131.660546,169.191021 130.994698,138.924279 C130.601398,121.075537 58.3033626,136.272056 57.3925646,152.878315 C56.1471174,175.464876 132.964643,144.375501 125.222861,124.45823 C117.481078,104.544372 88.059545,110.162852 70.5094348,116.798529 C52.9593247,123.437619 40.943002,137.517952 71.0269337,133.141955 C99.2547696,129.032205 108.552498,120.78881 109.170047,111.094714 C109.618546,104.066494 104.281408,98.1544612 97.1916743,97.5434601 C91.7510366,97.0758224 83.8712545,98.0418186 73.090029,103.011749 C40.9913019,117.81914 6.27748066,90.122698 2.30998967,73.700763 C-6.26324087,38.2456314 8.56827546,11.2079787 54.5083712,2.01906812 C100.441567,-7.1732559 132.761094,15.9287303 128.517603,52.8891776 C124.622562,86.8048595 99.4134692,87.6923472 86.5104985,88.2009459 C73.6075278,88.7163714 70.4024851,60.9619018 72.4034805,55.8076466 C74.407926,50.6533914 84.0230542,47.0863737 90.4365896,54.2204091 C96.8466751,61.3578578 55.1742197,71.6629548 43.9548451,67.3040251 C32.7354706,62.9450954 41.9503997,51.4487169 51.1687787,51.4487169 C60.3837078,51.4487169 65.1929969,88.317002 65.1929969,88.317002" id="Stroke-1" stroke="#171767" stroke-width="3"></path>
                <g id="Group-14-Copy" style="mix-blend-mode: multiply;" transform="translate(25.000000, 9.000000)">
                    <mask id="mask-2" fill="white">
                        <use xlink:href="#path-1"></use>
                    </mask>
                    <g id="Clip-13"></g>
                    <path d="M81,40.9961635 C81,63.2936947 62.8665906,81.3787879 40.4923033,81.3787879 C18.1257127,81.3787879 0,63.2936947 0,40.9961635 C0,18.6986324 18.1257127,0.621212121 40.4923033,0.621212121 C62.8665906,0.621212121 81,18.6986324 81,40.9961635" id="Fill-12" fill="#FBB938" mask="url(#mask-2)"></path>
                </g>
            </g>
        </g>
    </g>
</svg>