<?xml version="1.0" encoding="UTF-8"?>
<svg width="225px" height="43px" viewBox="0 0 225 43" version="1.1" xmlns="http://www.w3.org/2000/svg" xmlns:xlink="http://www.w3.org/1999/xlink">
    <!-- Generator: Sketch 63.1 (92452) - https://sketch.com -->
    <title>Group</title>
    <desc>Created with Sketch.</desc>
    <defs>
        <polygon id="path-1" points="0.319039271 0 70.3190393 0 70.3190393 43 0.319039271 43"></polygon>
        <polygon id="path-3" points="0.0120763036 0.0817810458 9.80269494 0.0817810458 9.80269494 9.87205768 0.0120763036 9.87205768"></polygon>
    </defs>
    <g id="mp-design" stroke="none" stroke-width="1" fill="none" fill-rule="evenodd">
        <g id="mp-care" transform="translate(-50.000000, -27.000000)">
            <g id="Group" transform="translate(50.000000, 27.000000)">
                <g id="Group-3-Copy">
                    <mask id="mask-2" fill="white">
                        <use xlink:href="#path-1"></use>
                    </mask>
                    <g id="Clip-2"></g>
                    <path d="M49.7643574,23.7078744 C48.9037426,26.3010106 45.951634,27.6530738 43.1696468,26.7147015 C40.3876597,25.7763293 38.8365518,22.9208526 39.6871594,20.3176264 C40.5477741,17.7244903 43.4998827,16.3825171 46.2828706,17.3107993 C49.063857,18.2491715 50.6159656,21.1147383 49.7643574,23.7078744 M31.1610693,23.5464341 C30.3104617,26.1395702 27.3583531,27.4916334 24.5763659,26.5532612 C21.7943788,25.6148889 20.2332637,22.7594122 21.0948792,20.1561861 C21.9544932,17.5630499 24.9066018,16.2210768 27.6885889,17.149359 C30.4705761,18.0877312 32.0226847,20.9532979 31.1610693,23.5464341 M35.3140357,15.5551352 C35.3140357,-0.134851869 0.319039271,-7.97480038 0.319039271,11.6301159 C0.319039271,31.2350322 35.3140357,43 35.3140357,43 C35.3140357,43 70.3190393,31.2350322 70.3190393,11.6301159 C70.3190393,-7.97480038 35.3140357,-0.134851869 35.3140357,15.5551352" id="Fill-1" fill="#FBB938" mask="url(#mask-2)"></path>
                </g>
                <g id="Group-16-Copy" transform="translate(81.000000, 0.000000)">
                    <path d="M23.9728459,19.4167302 C23.502043,20.8424162 21.886532,21.5773628 20.3706561,21.0634527 C18.8487583,20.5550686 17.9947437,18.9857088 18.4649992,17.5655488 C18.9363495,16.1398628 20.551313,15.4049162 22.0677364,15.9188262 C23.5896342,16.4272104 24.4431014,17.9965701 23.9728459,19.4167302 M13.801313,19.3283155 C13.3305101,20.7540015 11.7149992,21.4889482 10.1936488,20.9750381 C8.67722545,20.466654 7.82321085,18.8972942 8.29346632,17.4771341 C8.76481669,16.0514482 10.3743057,15.3165015 11.8956561,15.8304116 C13.4181014,16.3387957 14.2715685,17.9081555 13.801313,19.3283155 M20.671751,7 C17.9071525,7 11.9235758,7.27629573 8.89018165,7.27629573 C5.85186048,7.27629573 3.2246707,7.18235518 0.503867782,7.18235518 C0.235619607,7.18235518 0.00569259962,7.4144436 0.00569259962,7.73494665 C0.00569259962,8.00571646 0.142553913,8.23780488 0.503867782,8.23780488 C0.82138603,8.23780488 1.27576559,8.09965701 1.72959771,8.09965701 C2.86280939,8.09965701 2.95094807,9.51429116 3.04401377,10.9786585 C3.2246707,13.6808308 3.26846632,16.7919207 3.26846632,19.947218 C3.26846632,24.4729421 3.13160501,28.9599848 3.04401377,32.1594893 C2.95094807,34.3090701 2.72594807,35.0882241 1.5927364,35.0882241 C1.41262691,35.0882241 0.82138603,34.9500762 0.503867782,34.9500762 C0.235619607,34.9500762 0.00569259962,35.1766387 0.00569259962,35.4529345 C0.00569259962,35.7734375 0.142553913,36 0.503867782,36 C1.99784588,36 6.2137218,35.9115854 9.2076999,35.9115854 C12.1535028,35.9115854 16.4120795,36 17.9071525,36 C18.2246707,36 18.4053276,35.679497 18.4053276,35.4529345 C18.4053276,35.1324314 18.2246707,34.9058689 17.9071525,34.9058689 C17.4089773,34.9058689 16.5002181,35.0882241 16.1826999,35.0882241 C14.8250357,35.0882241 14.4199262,34.2151296 14.4199262,31.8389863 C14.4199262,29.7336128 14.7374444,29.3689024 19.8998532,28.1366235 C25.7027729,26.7606707 30.0056926,25.252096 30.0056926,16.1509146 C30.0056926,9.79058689 26.4691962,7 20.671751,7" id="Fill-1" fill="#18186B"></path>
                    <path d="M44.5120217,34.9913545 C44.4686221,34.9913545 44.4197975,34.9968965 44.3763978,35.0024385 C44.1973743,35.0246065 44.0183508,35.0855686 43.8393273,35.0855686 C43.2100326,35.0855686 43.0744087,34.4426956 43.0310091,32.1483041 C42.9821845,29.5324762 42.9821845,25.448016 42.9821845,23.8907116 C42.9821845,20.0390157 43.2968318,13.1558413 43.2968318,12.2358679 C43.2968318,11.3657726 43.0744087,11 42.3089476,11 C40.5572297,11 38.8971935,11.2771004 37.1449331,11.2771004 C34.5897794,11.2771004 32.5662713,11 30.4125642,11 C30.0979168,11 30.0056926,11.2272223 30.0056926,11.5043228 C30.0056926,11.7315451 30.0979168,12.0086455 30.4125642,12.0086455 C30.5915877,12.0086455 30.8574105,11.9643095 31.2642821,11.9643095 C31.9803761,11.9643095 32.2082242,12.330082 32.2950235,14.0702727 C32.3872478,16.0931057 32.4306474,18.5703835 32.4306474,20.9091111 C32.4306474,25.1265795 32.2950235,29.393926 32.1648246,33.2511638 C32.116,34.2598094 32.0726004,35.0855686 31.5789295,35.0855686 C31.3076817,35.0855686 31.0852586,34.9913545 30.8574105,34.9913545 C30.5427631,34.9913545 30.3637396,35.1299047 30.3637396,35.4513412 C30.3637396,35.8614498 30.5427631,36 30.8574105,36 C33.0165425,36 35.0346257,35.8171137 37.3727812,35.8171137 C39.7272116,35.8171137 43.1015335,35.988916 44.4035226,36 L44.5120217,36 C44.8700687,36 45.0056926,35.7727777 45.0056926,35.4513412 C45.0056926,35.2241188 44.8700687,34.9913545 44.5120217,34.9913545" id="Fill-3" fill="#18186B"></path>
                    <path d="M57.7112764,11.5835733 C59.1640682,11.5835733 59.5697535,13.6677636 59.5697535,21.2969971 C59.5697535,25.4269848 59.1147281,26.56232 57.8921901,26.56232 C56.0282307,26.56232 55.9405149,23.6115453 55.9405149,18.9385712 C55.9405149,13.6238859 56.6641698,11.5835733 57.7112764,11.5835733 M64.7888398,29.9244481 C60.56752,29.9244481 53.9449819,31.6027698 51.2641698,31.6027698 C49.6798043,31.6027698 49.3124946,31.1475387 49.3124946,30.5113122 C49.3124946,29.4692171 50.447317,28.9701083 57.7989921,28.9701083 C66.8775708,28.9701083 70.3697535,26.6116824 70.3697535,20.8417661 C70.3697535,15.9384341 66.7843728,13.4428904 63.971987,13.0808995 C63.5169616,12.9876594 63.3360479,12.7627862 63.3360479,12.4885507 C63.3360479,12.2636775 63.5169616,11.9894419 63.9281291,11.9894419 C64.1529007,11.9894419 65.1506672,12.082682 66.4664033,12.082682 C69.0096114,12.082682 70.4190936,10.4921157 70.4190936,8.12820513 C70.4190936,4.99643494 67.8753373,3 63.8349312,3 C60.2988906,3 58.478789,4.4973262 58.478789,6.54312354 C58.478789,8.90154943 60.4304642,10.1301248 63.7472154,10.1740025 C64.4708703,10.2178802 64.7449819,10.5359934 64.7449819,10.810229 C64.7449819,11.1722199 64.5147281,11.3970931 63.9281291,11.3970931 C62.2938753,11.3970931 59.8438652,10.6731112 56.1652865,10.6731112 C48.7692053,10.6731112 45.1405149,13.8487591 45.1405149,19.7064308 C45.1405149,24.3410119 47.4978753,27.2424242 53.4899566,27.3356643 C53.9449819,27.3356643 54.1697535,27.5605375 54.1697535,27.8786508 C54.1697535,28.196764 53.9449819,28.4271219 53.5338144,28.4271219 C52.3989921,28.4271219 51.3573677,28.3777595 49.9484337,28.3777595 C46.5658956,28.3777595 44.038586,30.6210064 44.0056926,35.0636227 L44.0056926,35.1458933 C44.0056926,35.4585219 44.0111748,35.760181 44.0331038,36.0508707 C44.2414286,39.8024133 45.8586875,41.9524201 49.9045758,41.9524201 C54.4877231,41.9524201 58.7090429,40.0053476 63.2483322,40.0053476 C65.6988906,40.0053476 67.6012256,40.2740985 67.6012256,41.2284382 C67.6012256,41.6836693 67.1516824,42.182778 66.060718,42.182778 C64.9258956,42.182778 63.7910733,41.6836693 62.9303627,41.6836693 C62.5191951,41.6836693 62.3377332,41.9085424 62.3377332,42.2266557 C62.3377332,42.7696421 63.1989921,43 65.5618347,43 C69.4158449,43 71.0056926,41.0474428 71.0056926,35.9631153 C71.0056926,31.7837653 68.9164134,29.9244481 64.7888398,29.9244481" id="Fill-5" fill="#18186B"></path>
                    <path d="M87.4600722,23.9281768 C87.4600722,23.9281768 82.5330649,22.2707182 82.5330649,19.5082873 C82.5330649,16.7458564 87.4600722,17.8508287 87.4600722,20.0607735 C87.4600722,17.8508287 92.3870795,16.7458564 92.3870795,19.5082873 C92.3870795,22.2707182 87.4600722,23.9281768 87.4600722,23.9281768 M92.6662765,9 C89.901678,9 83.9235758,9.27624309 80.8852546,9.27624309 C77.8524079,9.27624309 75.2191962,9.18232044 72.5038678,9.18232044 C72.2301452,9.18232044 72.0056926,9.41436464 72.0056926,9.73480663 C72.0056926,10.0110497 72.1370795,10.2375691 72.5038678,10.2375691 C72.821386,10.2375691 73.2702911,10.0994475 73.7246707,10.0994475 C74.8578824,10.0994475 74.9509481,11.519337 75.0390868,12.9834254 C75.2191962,15.679558 75.2684663,18.7900552 75.2684663,21.9447514 C75.2684663,26.4751381 75.131605,30.9558011 75.0390868,34.1546961 C74.9509481,36.3038674 74.7210211,37.0828729 73.5878094,37.0828729 C73.4071525,37.0828729 72.821386,36.9447514 72.5038678,36.9447514 C72.2301452,36.9447514 72.0056926,37.1767956 72.0056926,37.4475138 C72.0056926,37.7679558 72.1370795,38 72.5038678,38 C73.9983933,38 78.2137218,37.9060773 81.2027729,37.9060773 C84.1480284,37.9060773 88.4071525,38 89.901678,38 C90.2191962,38 90.4053276,37.679558 90.4053276,37.4475138 C90.4053276,37.1270718 90.2191962,36.9005525 89.901678,36.9005525 C89.4035028,36.9005525 88.5002181,37.0828729 88.1826999,37.0828729 C86.8250357,37.0828729 86.4144517,36.2154696 86.4144517,33.8342541 C86.4144517,31.7292818 86.73197,31.3646409 91.8998532,30.1325967 C97.6972984,28.7569061 102.005693,27.2486188 102.005693,18.1491713 C102.005693,11.7900552 98.4691962,9 92.6662765,9" id="Fill-7" fill="#18186B"></path>
                    <path d="M113.108829,24.3008403 C113.020489,23.7109244 113.020489,22.7168067 113.020489,21.5861345 C113.020489,15.5285714 113.660949,12.9067227 115.350436,12.9067227 C116.493325,12.9067227 117.089615,13.7205882 117.089615,16.7903361 C117.089615,23.9840336 114.936346,24.9289916 113.931488,24.9289916 C113.567088,24.9289916 113.246859,24.7978992 113.108829,24.3008403 M126.641293,25.294958 C126.409403,25.294958 126.227203,25.4260504 126.227203,25.7428571 C126.227203,29.047479 122.389968,30.2655462 118.503042,30.2655462 C114.986037,30.2655462 113.340719,29.3642857 113.340719,27.8239496 C113.340719,26.0596639 115.124067,25.6117647 118.961302,25.6117647 C125.404544,25.6117647 126.729633,23.6672269 126.729633,20.8596639 C126.729633,15.9327731 124.079456,12 115.212406,12 C107.582106,12 102.005693,15.5722689 102.005693,25.562605 C102.005693,35.2415966 108.128705,38 114.936346,38 C123.803396,38 127.005693,34.4714286 127.005693,25.7428571 C127.005693,25.4260504 126.867663,25.294958 126.641293,25.294958" id="Fill-9" fill="#18186B"></path>
                    <path d="M143.501989,13.6233072 C142.91616,13.6233072 141.963503,13.6674982 141.64595,13.6674982 C140.649493,13.6674982 140.151264,13.5349252 140.151264,12.3914825 C140.151264,10.0548824 140.28814,8.96115467 140.28814,8.45848182 C140.28814,8.18228795 140.107464,8 139.833712,8 C139.609235,8 139.51616,8.08838204 139.291683,8.32038489 C136.84434,11.065752 131.719155,13.5349252 127.416321,13.6233072 C127.098768,13.6674982 127.005693,13.85531 127.005693,14.12598 C127.005693,14.3579829 127.098768,14.6286529 127.416321,14.6286529 C127.460121,14.6286529 127.821474,14.5402708 128.32025,14.5402708 C128.954807,14.5402708 129.409235,15.0429437 129.453036,16.1366714 C129.589912,18.5174626 129.546111,20.572345 129.546111,22.5885602 C129.546111,25.6487883 129.409235,29.2614041 129.409235,31.3218104 C129.409235,37.4477904 131.632102,39 136.614388,39 C141.689751,39 143.140636,36.0778689 143.140636,29.4436921 C143.140636,26.9303279 142.823084,26.383464 142.237255,26.383464 C141.870974,26.383464 141.60215,26.654134 141.60215,27.1568068 C141.60215,28.2118674 142.281602,29.3995011 142.281602,30.4048468 C142.281602,31.0898076 142.056578,31.9128653 141.328398,31.9128653 C140.693293,31.9128653 140.28814,31.5924804 140.151264,29.493407 C139.970588,26.1072701 139.970588,20.9424448 140.014388,15.9101924 C140.014388,15.0871347 140.28814,14.5844619 141.240797,14.5844619 C141.870974,14.5844619 142.823084,14.6783678 143.501989,14.6783678 C143.868817,14.6783678 144.005693,14.4021739 144.005693,14.12598 C144.005693,13.85531 143.868817,13.6233072 143.501989,13.6233072" id="Fill-11" fill="#18186B"></path>
                    <g id="Group-15" transform="translate(32.005693, 0.000000)">
                        <mask id="mask-4" fill="white">
                            <use xlink:href="#path-3"></use>
                        </mask>
                        <g id="Clip-14"></g>
                        <path d="M6.45636438,0.334387255 C9.02017157,1.18994281 10.4053023,3.96191993 9.54974673,6.52572712 C8.69419118,9.08953431 5.92221405,10.474665 3.35840686,9.61910948 C0.794599673,8.76412582 -0.590531046,5.99214869 0.26502451,3.4283415 C1.12058007,0.863962418 3.89255719,-0.521168301 6.45636438,0.334387255" id="Fill-13" fill="#18186B" mask="url(#mask-4)"></path>
                    </g>
                </g>
            </g>
        </g>
    </g>
</svg>